<svg width="1226" height="1161" viewBox="0 0 1226 1161" fill="none" xmlns="http://www.w3.org/2000/svg">
<path d="M419.503 474.173C417.532 471.106 414.981 468.454 411.993 466.365C389.646 447.237 367.602 427.746 344.709 409.344C324.057 392.46 304.516 374.263 286.207 354.866C280.831 349.404 275.909 343.513 271.491 337.251C267.039 331.252 263.998 324.328 262.593 316.992C261.188 309.656 261.455 302.098 263.375 294.879C265.176 287.44 268.052 280.303 271.915 273.693C277.971 263.766 283.24 253.355 288.993 243.428C297.984 228.183 308.626 213.973 320.727 201.056C326.65 195.584 333.791 191.601 341.56 189.434C342.922 189.048 344.348 188.94 345.753 189.117C347.158 189.294 348.512 189.751 349.736 190.463C353.351 192.295 356.611 194.755 359.365 197.727C369.963 207.715 378.866 219.155 388.435 230.051C398.003 240.946 406.603 251.539 416.172 262.011C433.735 281.381 452.509 299.48 469.526 319.577C469.782 319.889 470.089 320.155 470.435 320.364C471.537 320.679 472.681 320.822 473.826 320.787C474.129 320.787 474.614 319.395 474.492 318.668C474.322 317.087 473.997 315.526 473.523 314.007C468.073 293.729 460.866 274.057 454.144 254.203C439.771 211.387 425.296 168.632 410.721 125.937C407.004 114.865 404.407 103.448 402.969 91.8582C402.092 83.8029 403.432 75.6611 406.845 68.3114C410.123 58.6362 417.027 50.6076 426.104 45.9144C427.238 45.4876 428.269 44.828 429.132 43.9778C437.671 33.1427 450.207 28.3002 461.835 22.0655C466.801 19.4626 471.888 17.1625 476.854 14.5597C488.625 8.39938 501.234 3.99422 514.281 1.48472C526.971 -1.13449 540.132 -0.276782 552.374 3.9667C569.221 10.017 583.479 21.6617 592.769 36.9559C603.019 52.3705 611.166 69.0839 616.993 86.6526C620.809 98.7588 623.897 110.865 626.623 122.971C631.407 144.157 634.617 165.646 637.463 187.195C640.794 212.255 642.429 237.496 647.456 262.314C650.847 262.314 651.574 259.651 652.482 257.593C658.538 243.61 665.2 229.748 670.651 215.584C678.039 196.879 684.883 177.994 691.726 159.108C694.138 152.319 697.524 145.917 701.779 140.101C703.632 137.51 706.017 135.344 708.774 133.747C711.531 132.15 714.597 131.159 717.767 130.84C723.796 129.962 729.948 130.651 735.633 132.838C747.636 137.571 759.257 143.216 770.395 149.726C777.057 153.539 783.598 157.534 790.078 161.832C800.605 167.673 808.776 176.987 813.195 188.182C817.613 199.377 818.005 211.759 814.302 223.211C812.607 229.264 811.274 235.74 809.336 241.854C804.316 257.119 798.079 271.957 790.683 286.224C781.841 303.838 772.212 321.15 762.886 338.523C761.652 340.105 760.933 342.027 760.827 344.031C764.789 343.408 768.643 342.226 772.273 340.52L829.988 305.472C830.599 304.934 831.269 304.467 831.986 304.08C839.456 301.064 846.327 296.739 852.274 291.308C854.12 289.878 856.159 288.717 858.331 287.858C862.511 285.744 867.27 285.061 871.877 285.914C876.483 286.767 880.682 289.109 883.827 292.579C888.474 297.526 892.538 302.99 895.939 308.862C907.863 330.809 918.185 353.588 926.825 377.021C933.487 395.664 927.976 411.766 917.741 427.141C909.687 439.247 897.877 448.205 889.58 460.13C880.678 464.428 875.954 473.749 867.233 478.289C862.516 481.368 857.987 484.723 853.667 488.338C849.819 491.169 845.771 493.718 841.555 495.965C838.495 497.011 835.943 499.173 834.409 502.018C833.137 504.621 829.564 506.013 827.081 508.071C826.857 508.37 826.707 508.718 826.644 509.086C826.581 509.454 826.606 509.833 826.717 510.189C826.892 510.529 827.15 510.819 827.468 511.031C827.786 511.243 828.153 511.37 828.534 511.4C834.904 510.652 841.177 509.232 847.248 507.163C865.416 501.957 883.585 496.812 901.753 491.425C910.382 489.292 919.314 488.657 928.158 489.548C930.985 489.645 933.746 490.436 936.196 491.85C938.646 493.265 940.711 495.26 942.208 497.659C947.421 505.346 951.633 513.666 954.744 522.417C960.959 541.121 965.678 560.289 968.855 579.74C971.701 595.599 973.761 611.519 975.577 627.499C975.808 629.086 976.256 630.634 976.91 632.099C978.363 636.316 978.363 640.897 976.91 645.113C973.988 656.907 968.039 667.736 959.65 676.529C949.071 687.705 936.811 697.161 923.313 704.555C891.158 722.306 857.618 737.427 823.023 749.772C785.233 763.573 747.019 776.526 709.047 789.843C707.109 790.449 705.171 790.933 703.293 791.72C702.594 791.883 701.939 792.197 701.374 792.64C700.81 793.084 700.349 793.646 700.026 794.287C699.702 794.928 699.524 795.632 699.502 796.349C699.481 797.067 699.617 797.78 699.902 798.439C701.9 805.824 704.141 813.148 706.261 820.472C716.193 854.935 726.105 889.377 735.997 923.799C743.022 948.011 749.926 972.647 757.072 996.981C769.669 1039.84 782.447 1082.69 795.104 1125.55C795.71 1127.49 796.134 1129.48 796.679 1131.6C798.98 1139.29 800.616 1146.8 791.107 1151.09C786.808 1160.42 778.692 1161.38 769.79 1160.9C764.158 1160.9 758.465 1160.9 752.833 1160.9C747.953 1160.97 743.156 1159.64 739.019 1157.05C734.883 1154.46 731.582 1150.73 729.516 1146.31C726.895 1141.34 724.589 1136.2 722.612 1130.94C715.063 1107.57 707.674 1084.15 700.447 1060.66C695.057 1042.92 689.97 1025.13 684.943 1007.33C676.828 978.641 669.742 949.706 663.141 920.712C656.237 890.527 649.313 860.261 642.369 829.915C641.4 825.617 641.097 821.138 639.946 816.901C638.796 812.663 637.281 811.756 632.86 812.967C621.233 816.114 609.605 819.564 597.977 822.773C576.32 829.053 554.321 834.085 532.086 837.845C511.435 841.114 490.905 845.048 469.89 846.622C457.777 847.53 445.665 848.862 433.916 850.012C419.421 851.071 404.868 851.071 390.373 850.012C380.255 850.185 370.224 848.118 361 843.959C349.641 837.962 338.82 830.995 328.661 823.136C321.569 817.076 316.113 809.333 312.793 800.618C304.185 780.172 298.222 758.712 295.049 736.757C292.748 721.685 290.628 706.492 288.569 691.419C287.418 683.308 290.265 675.439 290.507 667.207C290.619 666.011 291.156 664.894 292.021 664.059C299.288 658.006 306.192 650.803 316.609 649.956C317.82 649.956 319.031 649.956 320.243 649.956C338.411 649.472 356.579 647.353 374.324 645.234C377.126 645.023 379.94 645.023 382.742 645.234C396.913 645.9 410.842 642.631 425.135 642.268C431.14 641.629 437.09 640.556 442.94 639.06C435.067 637.849 429.798 636.82 424.469 636.215C413.265 635.004 401.94 634.399 390.857 632.705C379.774 631.01 366.633 630.041 354.823 628.77C343.74 627.62 332.658 625.622 321.333 625.44C306.012 624.955 290.831 622.369 276.215 617.753C258.046 612.366 247.932 596.931 247.024 577.439C246.829 567.27 247.825 557.112 249.991 547.174C254.485 524.256 260.165 501.587 267.009 479.258C268.22 475.021 270.279 471.025 271.793 466.849C274.916 459.021 280.564 452.46 287.842 448.205C292.581 444.831 298.09 442.698 303.867 442C309.643 441.302 315.502 442.062 320.909 444.21C344.709 451.777 368.692 458.738 392.068 467.636C396.247 469.21 400.426 470.723 404.181 472.66C408.474 474.943 413.317 475.99 418.17 475.686C418.716 476.655 419.2 477.624 420.411 476.292L419.503 474.173Z" fill="#E3D5C5"/>
</svg>
