<svg width="1226" height="1161" viewBox="0 0 1226 1161" fill="none" xmlns="http://www.w3.org/2000/svg">
<path d="M488.092 404.466C491.194 345.227 502.232 286.67 520.913 230.363C545.596 159.709 611.329 11.8065 651.564 158.715C670.641 228.736 674.258 306.346 672.45 378.535C765.841 287.627 884.808 227.415 1013.41 205.968C1024.8 204.07 1038.18 203.167 1046.05 211.569C1087.55 255.75 900.026 396.877 869.375 417.657C979.773 420.277 1094.42 433.017 1188.36 491.021C1193.79 494.454 1199.75 498.881 1199.94 505.296C1199.67 507.94 1198.85 510.497 1197.52 512.801C1196.2 515.105 1194.4 517.104 1192.25 518.667C1156.08 552.097 1104.91 563.843 1055.81 568.18C1006.72 572.517 956.355 570.076 908.615 580.918C974.686 605.533 1034.6 644.226 1084.2 694.308C1108.52 718.883 1131.4 749.331 1130.68 783.844C1095.23 800.83 1053.37 789.716 1015.76 778.422L798.76 713.19C820.46 759.63 842.341 806.792 850.84 857.75C859.339 908.707 852.919 963.549 822.178 1004.57C818.434 1010.65 812.724 1015.27 805.994 1017.67C791.979 1021.37 779.773 1008 771.726 995.985C726.49 928.762 687.394 857.611 654.909 783.392C634.746 852.238 614.584 921.265 585.289 986.588C568.924 1022.73 543.155 1062.66 503.372 1065.01C494.401 1065.94 485.4 1063.56 478.056 1058.33C467.206 1049.29 464.855 1034.56 463.408 1020.92C453.164 925.184 451.681 828.713 458.978 732.706L232.939 881.061C213.047 894.071 192.342 907.442 168.924 911.327C145.507 915.212 118.201 906.72 107.261 885.578C92.071 856.034 114.856 821.429 138.364 797.848C215.398 720.418 312.052 666.118 407.441 612.722C341.166 599.802 274.892 586.792 209.159 571.432C153.915 558.603 97.1343 543.153 53.2826 507.194C31.9445 489.756 14.6751 455.423 35.1995 436.992C39.9624 433.017 45.4184 429.954 51.2935 427.957C170.642 382.782 303.915 425.337 421.998 474.126C366.374 408.187 315.895 338.081 271.004 264.425C259.25 245.18 247.586 224.671 246.592 202.174C245.763 193.242 247.822 184.279 252.468 176.604C256.417 171.64 261.378 167.575 267.021 164.677C272.665 161.779 278.862 160.116 285.199 159.799C330.859 154.739 371.998 186.904 402.74 221.688C442.666 267.086 474.42 319.052 496.591 375.283" fill="#F8E58F"/>
</svg>
