<svg width="1226" height="1161" viewBox="0 0 1226 1161" fill="none" xmlns="http://www.w3.org/2000/svg">
<path d="M731.044 109.589C483.884 133.944 163.824 261.491 83.1086 517.347C63.5669 579.295 59.3187 644.638 60.0834 709.896C61.1879 797.473 73.2528 890.396 128.055 958.369C179.033 1021.17 261.703 1053.67 342.589 1052.99C423.474 1052.31 501.981 1021 568.253 974.748C665.962 906.859 738.946 807.062 838.184 740.955C935.807 675.782 1060.96 640.31 1123.41 540.937C1282.29 288.561 950.081 88.0344 731.044 109.589ZM770.383 593.297C703.431 614.937 622.46 588.969 565.109 629.618C517.19 663.562 498.753 736.542 441.912 751.138C396.626 762.679 350.235 726.868 332.818 683.249C309.028 623.847 326.785 553.752 365.104 502.581C403.423 451.41 459.584 416.362 517.275 388.612C619.911 339.223 798.93 233.486 862.653 400.493C891.031 475.425 846.17 569.027 770.383 593.552V593.297Z" fill="#FB7F6E"/>
</svg>
