<svg width="1226" height="1161" viewBox="0 0 1226 1161" fill="none" xmlns="http://www.w3.org/2000/svg">
<path d="M69.2079 539.04C67.4482 479.428 67.836 419.905 70.3711 360.472C71.0421 344.645 72.0263 328.147 79.6317 314.243C94.6188 286.836 129.738 278.163 160.92 276.821C199.573 275.122 241 281.292 270.08 307C326.404 356.448 320.454 461.47 388.903 492.051C436.727 513.422 496.273 478.325 513.407 428.787C527.231 388.281 518.418 343.84 523.831 301.277C529.244 258.714 560.024 211.859 602.614 216.33C633.93 219.594 655.807 249.638 663.591 279.906C671.376 310.174 668.87 342.141 673.344 373.08C681.934 432.275 724.703 491.648 784.338 496.7C827.823 500.411 869.921 473.854 894.303 437.684C918.685 401.515 927.901 357.208 931.167 313.662C933.359 284.422 933.225 254.511 942.53 226.702C951.835 198.893 973.22 173.052 1002.17 167.865C1034.06 162.366 1064.8 183.871 1084.26 209.803C1116.92 253.617 1127.07 309.683 1136.02 363.557C1148.46 438.624 1160.31 514.495 1156.15 590.456C1151.99 666.416 1130.52 743.494 1082.65 802.689C1038.67 857.011 975.77 892.644 911.706 920.632C766.13 984.208 601.719 1014.52 446.883 978.754C292.046 942.986 149.78 834.343 98.9136 683.942C80.1238 628.324 73.9948 569.353 68 510.963" fill="#E3D5C5"/>
</svg>
