<svg width="1226" height="1161" viewBox="0 0 1226 1161" fill="none" xmlns="http://www.w3.org/2000/svg">
<path d="M1201.36 534.088C1172.37 473.643 1093.18 446.895 1029.7 468.529C998.01 479.701 970.263 499.887 949.854 526.615C947.363 529.68 944.008 531.921 940.226 533.048C936.444 534.175 932.412 534.133 928.654 532.93C924.896 531.727 921.586 529.418 919.157 526.304C916.729 523.189 915.293 519.414 915.037 515.47C914.747 485.646 909.209 456.107 898.676 428.211C887.636 400.795 870.581 376.219 848.773 356.302C826.965 336.386 800.964 321.639 772.695 313.155C744.285 305.118 714.396 303.832 685.403 309.397C656.409 314.962 629.112 327.226 605.68 345.213C548.415 390.186 524.921 461.449 512.879 535.334C511.994 539.44 509.819 543.154 506.674 545.933C503.529 548.711 499.578 550.408 495.401 550.774C491.224 551.141 487.039 550.157 483.46 547.969C479.88 545.78 477.095 542.501 475.51 538.612L460.916 497.048C443.638 448.075 422.107 394.186 374.987 372.486C311.636 343.246 234.542 392.809 208.299 457.712C187.16 510.16 189.778 567.72 197.239 624.363C197.637 627.904 197.067 631.486 195.591 634.727C194.115 637.968 191.787 640.747 188.858 642.767C185.928 644.786 182.505 645.97 178.956 646.193C175.406 646.416 171.863 645.668 168.705 644.031C142.527 629.739 115.236 619.119 84.0844 620.823C72.3555 621.323 60.8878 624.451 50.5247 629.976C40.1617 635.501 31.1672 643.284 24.2026 652.751C-18.3365 712.934 51.6894 783.082 96.1919 817.828C145.276 856.377 197.5 854.934 257.971 855C449.79 855 641.675 851.656 833.362 845.494C878.127 844.117 923.218 846.674 967.982 846.805C998.676 846.805 1029.37 846.805 1060.06 845.756C1095.53 844.576 1121.06 834.743 1140.1 818.812C1175.38 789.245 1188.66 738.895 1202.6 684.022C1214.97 634.132 1223.35 579.914 1201.36 534.088ZM809.802 744.533C743.637 760.857 674.789 761.972 606.923 763.021C542.133 764.004 477.081 764.988 413.01 755.678C392.788 752.728 367.722 743.025 368.181 722.571C368.664 715.176 371.775 708.199 376.95 702.903C390.497 687.628 411.439 681.465 431.466 677.729C486.374 667.698 542.722 671.173 598.481 669.599C641.073 668.538 683.551 664.684 725.64 658.061C750.116 654.193 778.65 644.556 803.65 648.948C824.462 652.619 848.153 670.648 855.155 691.365C865.365 722.112 835.587 738.24 809.802 744.533Z" fill="#F8E58F"/>
</svg>
