<svg width="1226" height="1161" viewBox="0 0 1226 1161" fill="none" xmlns="http://www.w3.org/2000/svg">
<path d="M481.35 1092.68C469.943 1092.68 458.614 1093.15 447.207 1092.68C415.173 1091.37 383.531 1085.14 353.39 1074.22C334.552 1067.05 317.481 1055.91 303.339 1041.55C290.07 1028.44 281.146 1012.38 269.583 998.1C267.023 994.919 265.083 991.117 262.289 988.169C253.493 977.856 247.791 965.27 245.838 951.858C242.169 934.696 239.963 917.253 239.242 899.718C237.948 886.361 235.587 873.128 232.181 860.147C226.827 831.207 220.463 802.5 214.488 773.714C208.513 744.929 201.064 714.358 192.45 685.107C179.181 640.028 168.705 594.251 158.928 548.318C153.185 521.085 148.452 494.006 143.408 466.152C140.614 449.858 138.519 433.486 136.579 417.115C131.157 375.97 129.08 334.454 130.371 292.973C130.974 255.726 137.847 218.848 150.702 183.884C158.277 164.089 168.12 145.239 180.035 127.709C186.415 118.384 193.692 109.703 201.762 101.794C212.695 90.4508 225.865 81.5036 240.439 75.5198C255.013 69.536 270.672 66.6464 286.423 67.0345C304.155 67.8079 321.095 74.5941 334.456 86.2764C349.916 99.2368 362.093 115.667 369.996 134.227C387.603 175.569 400.01 218.937 406.933 263.335C412.882 297.887 418.676 332.466 424.315 367.071C426.333 379.252 427.497 391.589 428.738 403.926C432.075 438.375 434.481 472.901 438.749 507.196C442.088 535.948 447.272 564.456 454.268 592.543C458.188 608.114 464.609 622.945 473.28 636.459C476.505 641.163 480.225 645.507 484.377 649.417C485.1 650.168 485.968 650.765 486.928 651.173C487.888 651.581 488.921 651.791 489.964 651.791C491.007 651.791 492.039 651.581 492.999 651.173C493.959 650.765 494.827 650.168 495.551 649.417C500.969 643.9 505.521 637.596 509.053 630.718C519.219 609.303 528.841 587.656 539.704 566.551C549.327 547.775 560.268 529.697 570.744 511.308C574.081 505.411 577.573 499.748 580.987 494.006C594.633 472.067 610.778 451.783 629.098 433.564C641.811 420.719 656.099 409.535 671.622 400.279C679.232 394.885 688.054 391.447 697.307 390.27C698.841 390.189 700.333 389.736 701.653 388.95C712.905 381.967 724.467 384.063 736.107 387.554C748.149 390.913 758.704 398.24 766.06 408.348C775.297 421.553 780.964 436.921 782.511 452.961C785.301 473.973 785.301 495.262 782.511 516.274C779.429 538.298 773.778 559.886 765.672 580.595C754.682 609.693 742.145 638.183 728.114 665.943C713.672 693.496 701.149 722.013 690.634 751.291C686.584 761.92 684.278 773.133 683.805 784.498C683.713 787.586 683.895 790.676 684.349 793.732C684.548 795.561 685.391 797.258 686.727 798.523C688.063 799.788 689.806 800.538 691.643 800.637C696.781 801.144 701.967 800.426 706.774 798.542C714.908 795.429 722.708 791.504 730.054 786.826C742.548 779.067 755.274 771.308 767.612 762.619C773.664 758.584 778.864 753.541 784.839 749.429C804.936 735.825 826.205 724.037 848.392 714.203C874.233 702.487 899.374 689.297 924.827 676.728C936.986 670.988 949.568 666.188 962.462 662.373C983.815 655.392 1007.03 656.864 1027.33 666.486C1039.5 670.722 1050.91 676.849 1061.17 684.641C1076.69 698.607 1091.2 713.116 1094.92 735.074C1096.21 742.17 1096.35 749.429 1095.31 756.566C1090.72 788.508 1076.48 818.285 1054.49 841.914C1009.92 890.936 957.789 932.506 900.073 965.047C873.068 980.565 845.753 995.617 817.896 1008.57C783.922 1024.98 749.11 1039.59 713.603 1052.33C678.89 1064.11 643.458 1073.64 607.526 1080.89C582.694 1085.85 557.707 1089.73 532.488 1092.22C515.571 1093.85 498.422 1093.46 481.35 1094V1092.68Z" fill="#A3B9FE"/>
</svg>
