<svg width="1226" height="1161" viewBox="0 0 1226 1161" fill="none" xmlns="http://www.w3.org/2000/svg">
<g clip-path="url(#clip0_1050_14702)">
<path d="M296.108 943.467C296.108 943.467 168.748 804.718 160.649 614.989C152.55 425.261 173.263 242.508 291.143 269.675C409.022 296.841 382.243 667.732 382.243 667.732C382.243 667.732 490.504 408.271 676.719 286.796C862.934 165.321 1025.35 204.259 988.967 352.797C952.581 501.336 623.053 790.958 623.053 790.958C623.053 790.958 947.281 681.638 1001.35 814.063C1055.41 946.488 795.866 1039.41 646.213 1030.21C496.56 1021.01 392.61 1016.13 296.108 943.467Z" fill="#F8E58F"/>
</g>
<defs>
<clipPath id="clip0_1050_14702">
<rect width="1226" height="1161" fill="white"/>
</clipPath>
</defs>
</svg>
