<svg width="1226" height="1161" viewBox="0 0 1226 1161" fill="none" xmlns="http://www.w3.org/2000/svg">
<path d="M131.226 588.71C127.351 501.478 204.021 424.683 266.456 408.887C322.585 394.783 371.244 411.144 413.032 449.506C421.91 457.99 431.325 465.893 441.219 473.165C478.85 499.715 498.405 489.419 514.084 444.111C524.126 415.057 515.353 386.921 507.038 359.877C490.513 306.071 490.865 252.759 514.084 202.373C532.618 162.459 563.413 133.335 610.768 126.953C667.495 119.267 726.795 159.004 736.449 212.563C740.466 234.882 730.565 255.121 727.147 276.312C723.906 296.375 720.101 316.331 722.32 336.852C724.681 359.453 737.612 367.211 758.33 358.008C775.76 349.575 791.499 338.019 804.769 323.912C861.884 266.545 928.759 261.503 998.805 291.086C1049.83 312.664 1057.47 367.563 1019.28 404.515C1000.67 422.497 976.467 430.219 954.48 442.031C943.135 448.131 931.19 453.138 920.127 459.661C887.852 478.877 883.624 510.892 908.288 540.51C935.031 572.596 973.084 583.456 1010.26 595.868C1047.43 608.279 1078.72 626.367 1091.3 666.563C1106.2 713.881 1084.25 750.163 1045.74 770.507C994.401 797.622 938.554 797.199 882.849 790.288C858.588 786.655 834.03 785.403 809.526 786.55C780.88 788.63 767.914 812.007 756.463 834.961C741.277 865.39 735.322 899.486 720.453 929.88C701.884 967.607 683.95 1005.9 640.717 1023.7C581.946 1047.89 493.966 1036.19 464.968 959.603C452.812 927.447 456.053 894.021 464.439 861.089C474.798 820.258 492.415 781.684 501.647 740.325C508.694 708.768 496.82 683.91 469.689 675.377C463.476 673.809 456.979 673.737 450.733 675.166C408.874 681.513 370.539 700.412 329.139 708.521C293.904 715.573 258.67 718.429 223.047 711.307C165.369 699.883 122.065 653.869 131.226 588.71ZM763.051 571.821C768.795 528.663 734.124 501.302 709.037 496.577C656.89 486.705 610.38 512.232 589.662 561.102C570.882 605.388 592.869 645.724 628.138 660.921C692.653 688.318 767.879 623.687 763.051 571.715V571.821Z" fill="#FB7F6E"/>
</svg>
