<svg width="1226" height="1161" viewBox="0 0 1226 1161" fill="none" xmlns="http://www.w3.org/2000/svg">
<path d="M404.374 111.11C380.862 113.732 356.613 116.929 336.378 129.224C290.664 156.928 282.144 218.484 278.376 271.843C277.311 286.679 276.901 303.318 287.06 314.138C297.218 324.957 311.637 325.448 325.482 326.022C481.702 332.624 638.187 328.927 793.921 314.957C826.691 312.088 859.46 308.482 889.116 294.712C1004.63 240.615 932.7 87.6668 826.691 83.8144C689.878 79.0604 540.449 96.0279 404.374 111.11Z" fill="#E3D5C5"/>
<path d="M310.981 451.818C277.474 457.556 243.394 463.867 213.164 479.522C194.664 488.805 178.218 501.715 164.806 517.486C151.393 533.257 141.288 551.566 135.091 571.323C129.236 591.203 128.417 612.228 132.707 632.504C136.998 652.779 146.263 671.668 159.668 687.468C199.237 731.811 265.677 737.385 325.072 738.123C513.466 740.001 701.682 725.989 887.724 696.238C931.798 689.353 976.201 681.484 1017.16 663.452C1037.55 655.519 1055.81 642.947 1070.5 626.732C1101.05 590.011 1098.92 536.57 1090.48 489.522C1087.31 464.488 1078.94 440.394 1065.91 418.786C1031.66 367.885 964.404 386 912.137 388.049C843.758 390.836 775.488 395.098 707.328 400.836C574.448 412.256 442.332 429.25 310.981 451.818Z" fill="#E3D5C5"/>
<path d="M857.904 853.995C888.216 863.012 920.658 875.716 935.731 903.175C942.825 918.284 946.756 934.685 947.283 951.37C949.986 981.287 949.167 1016.2 925.573 1034.73C913.306 1042.9 899.26 1048.02 884.611 1049.65C736.82 1076.99 586.135 1085.25 436.243 1074.24C410.601 1072.27 382.747 1068.83 364.478 1050.71C346.209 1032.6 342.604 1005.55 339.901 980.386C333.347 922.519 329.087 860.061 374.964 816.456C406.095 786.866 435.915 790.882 475.73 795.718C604.35 811.619 732.069 816.291 857.904 853.995Z" fill="#E3D5C5"/>
</svg>
