<svg width="1226" height="1161" viewBox="0 0 1226 1161" fill="none" xmlns="http://www.w3.org/2000/svg">
<path d="M313.443 557.062C316.752 550.778 318.44 543.766 318.353 536.664C318.267 529.562 316.408 522.594 312.947 516.392C305.506 499.994 296.81 484.196 286.935 469.139C271.85 446.724 255.212 425.675 239.072 403.632C218.561 375.607 204.93 343.148 199.279 308.879C192.896 271.046 201.481 232.213 223.217 200.598C244.953 168.984 278.135 147.069 315.74 139.492C365.404 129.433 408.86 142.224 443.438 178.237C459.682 194.808 473.459 213.628 484.349 234.12C502.228 268.706 516.444 305.216 532.336 340.857C538.979 355.635 542.455 372.4 560.458 384.88C563.128 370.785 565.735 358.863 567.535 346.818C572.378 314.902 574.675 282.366 582 251.071C605.714 149.675 665.063 78.3307 766.315 48.1539C841.245 25.8007 912.388 36.1699 974.406 87.2098C1025.81 129.619 1042.69 192.27 1016.87 253.741C1007 276.559 994.212 297.996 978.814 317.51C937.655 371.096 885.694 413.07 829.822 450.326C809.212 464.048 789.657 479.385 770.288 494.721C759.151 503.747 750.587 515.547 745.456 528.934C757.457 526.951 769.334 524.277 781.028 520.925C809.998 510.576 838.782 499.689 867.38 488.264C917.727 468.27 968.57 450.202 1022.58 443.434C1072.68 437.224 1118.31 447.221 1157.11 481.061C1191.25 510.804 1203.6 556.007 1188.89 595.373C1179.36 619.406 1161.3 639.08 1138.17 650.635C1106.93 667.196 1073.32 678.84 1038.53 685.159C974.22 698.136 908.912 701.551 843.542 703.103C814.24 703.786 784.877 703.6 755.637 704.531C744.36 704.67 733.151 706.298 722.3 709.374C704.856 714.777 700.945 729.803 714.292 742.097C723.879 750.446 734.844 757.064 746.697 761.656C764.763 768.983 783.945 773.144 802.135 780.284C831.016 790.869 859.267 803.1 886.749 816.918C939.827 845.481 977.696 887.704 992.844 947.685C1008.43 1009.28 983.78 1068.89 928.343 1099.69C878.679 1127.38 825.787 1131.66 771.343 1115.89C705.104 1096.71 650.909 1058.83 606.149 1007.11C586.47 984.381 568.901 959.855 548.539 937.75C528.177 915.645 506.387 895.093 484.038 875.161C475.165 868.229 465.141 862.912 454.426 859.452C446.415 856.12 437.658 854.996 429.066 856.197C420.473 857.398 412.36 860.881 405.57 866.282C375.868 888.179 350.021 914.871 329.087 945.263C306.904 977.427 284.349 1009.34 261.42 1041.01C248.523 1059.64 231.342 1074.91 211.322 1085.53C170.349 1106.21 133.785 1087.64 125.776 1042.38C122.22 1024.5 124.733 1005.95 132.915 989.659C145.331 965.629 158.678 942.22 172.895 919.246C184.69 900.122 198.782 882.426 210.825 863.363C214.376 856.961 216.235 849.759 216.226 842.438C216.435 829.227 213.894 816.118 208.764 803.942C203.634 791.767 196.028 780.792 186.428 771.715C160.603 745.45 133.722 720.241 108.021 693.914C88.8506 674.91 70.7177 654.888 53.7017 633.933C37.6512 613.662 29.2745 588.373 30.0493 562.526C31.4151 504.284 81.8859 462.434 138.627 475.225C158.063 480.674 176.716 488.604 194.126 498.82C221.379 513.163 247.328 529.866 274.83 544.147C287.33 549.492 300.243 553.811 313.443 557.062V557.062Z" fill="#A3B9FE"/>
</svg>
