<svg width="1226" height="1161" viewBox="0 0 1226 1161" fill="none" xmlns="http://www.w3.org/2000/svg">
<path d="M495.978 1033.83C485.882 1033.83 475.854 1034.25 465.758 1033.83C437.405 1032.67 409.399 1027.16 382.721 1017.49C366.048 1011.15 350.938 1001.28 338.421 988.576C326.677 976.97 318.778 962.755 308.544 950.119C306.278 947.303 304.561 943.938 302.088 941.329C294.303 932.201 289.256 921.06 287.528 909.19C284.28 893.999 282.327 878.561 281.69 863.041C280.544 851.218 278.454 839.506 275.44 828.016C270.701 802.401 265.069 776.992 259.78 751.514C254.492 726.036 247.898 698.978 240.274 673.088C228.53 633.189 219.258 592.671 210.604 552.016C205.521 527.911 201.332 503.944 196.867 479.29C194.395 464.869 192.541 450.378 190.823 435.888C186.024 399.47 184.186 362.724 185.329 326.009C185.862 293.042 191.945 260.401 203.323 229.454C210.028 211.934 218.74 195.249 229.285 179.734C234.932 171.48 241.373 163.797 248.516 156.796C258.192 146.756 269.85 138.837 282.749 133.541C295.649 128.245 309.508 125.687 323.449 126.031C339.143 126.715 354.137 132.722 365.963 143.062C379.646 154.533 390.424 169.075 397.419 185.502C413.002 222.095 423.984 260.479 430.112 299.776C435.377 330.359 440.506 360.965 445.496 391.593C447.282 402.375 448.312 413.294 449.411 424.214C452.365 454.705 454.494 485.264 458.271 515.618C461.227 541.067 465.816 566.299 472.008 591.16C475.477 604.941 481.16 618.068 488.835 630.029C491.689 634.193 494.981 638.038 498.656 641.498C499.297 642.163 500.065 642.691 500.915 643.053C501.764 643.414 502.678 643.6 503.601 643.6C504.525 643.6 505.438 643.414 506.288 643.053C507.138 642.691 507.906 642.163 508.547 641.498C513.342 636.616 517.371 631.035 520.497 624.948C529.495 605.994 538.011 586.833 547.627 568.154C556.143 551.535 565.827 535.534 575.099 519.258C578.053 514.039 581.144 509.026 584.166 503.944C596.243 484.525 610.533 466.573 626.748 450.447C638 439.077 650.647 429.179 664.386 420.986C671.122 416.211 678.929 413.168 687.12 412.127C688.478 412.055 689.798 411.654 690.966 410.959C700.925 404.778 711.159 406.633 721.461 409.723C732.119 412.696 741.461 419.181 747.972 428.128C756.148 439.815 761.164 453.418 762.533 467.615C765.002 486.213 765.002 505.056 762.533 523.653C759.805 543.147 754.803 562.255 747.629 580.584C737.901 606.339 726.805 631.555 714.387 656.126C701.604 680.513 690.52 705.754 681.213 731.667C677.629 741.075 675.588 751 675.169 761.059C675.087 763.792 675.248 766.527 675.65 769.232C675.827 770.851 676.573 772.353 677.756 773.473C678.938 774.592 680.48 775.256 682.106 775.344C686.654 775.793 691.244 775.157 695.499 773.49C702.698 770.734 709.602 767.26 716.104 763.12C727.162 756.252 738.425 749.385 749.346 741.693C754.703 738.122 759.305 733.659 764.593 730.019C782.382 717.979 801.206 707.545 820.844 698.841C843.715 688.471 865.968 676.797 888.496 665.672C899.258 660.591 910.394 656.343 921.806 652.966C940.706 646.787 961.257 648.09 979.225 656.606C989.989 660.356 1000.1 665.779 1009.17 672.676C1022.91 685.037 1035.75 697.879 1039.05 717.314C1040.19 723.594 1040.31 730.019 1039.39 736.337C1035.32 764.608 1022.72 790.964 1003.26 811.878C963.813 855.267 917.67 892.061 866.586 920.864C842.685 934.599 818.509 947.921 793.852 959.39C763.782 973.909 732.97 986.837 701.543 998.122C670.819 1008.54 639.458 1016.98 607.655 1023.39C585.676 1027.79 563.561 1031.22 541.239 1033.42C526.267 1034.86 511.088 1034.52 495.978 1035V1033.83Z" fill="#FB7F6E"/>
</svg>
