<svg width="1226" height="1161" viewBox="0 0 1226 1161" fill="none" xmlns="http://www.w3.org/2000/svg">
<path d="M14.4508 468.091C-1.07721 534.713 -4.12304 603.638 5.46794 671.371C22.1503 812.739 82.8915 963.095 211.075 1024.86C237.31 1037.56 269.249 1045.69 294.772 1031.57C309.955 1021.47 322.086 1007.41 329.848 990.912C375.464 906.888 390.579 809.65 372.623 715.735C400.389 760.221 436.899 798.599 479.939 828.54C522.979 858.482 571.651 879.362 623.001 889.914C688.448 902.895 765.586 894.621 808.361 843.552C866.535 774.508 834.882 670.372 800.519 586.778C854.986 651.257 922.001 721.442 1006.27 717.448C1067.29 714.737 1119.34 672.369 1158.98 625.865C1188.69 593.709 1210.21 554.854 1221.71 512.599C1235.97 448.405 1213.16 380.503 1175.52 327.151C1098.66 216.738 965.774 155.969 832.601 136.425C546.434 94.2003 102.996 127.866 14.4508 468.091Z" fill="#E3D5C5"/>
</svg>
