<svg width="104" height="44" viewBox="0 0 104 44" fill="none" xmlns="http://www.w3.org/2000/svg">
<mask id="path-1-inside-1_53_3492" fill="white">
<path d="M66.2152 5.51548C78.1508 7.12658 91.3022 11.4751 98.9134 18.1575C106.161 24.503 105.958 32.8942 96.3975 38.2749C87.1417 43.4742 73.2969 44.0359 62.1045 43.9983C50.3298 43.9526 38.3601 42.9325 27.2527 40.3475C17.5819 38.1015 6.47959 34.5284 1.72733 27.8369C-1.54741 23.2002 0.123825 17.9987 4.30935 13.8188C15.1416 3.00921 37.5984 -1.38964 55.2781 0.380079C67.3598 1.58483 77.841 6.17015 85.1156 12.8394C85.8052 13.4723 84.2839 14.1381 83.6347 13.5142C69.4023 0.482663 44.2191 -1.68996 23.148 5.0008C15.0828 7.56641 7.07941 11.7321 3.32124 17.4928C-0.484437 23.3284 3.27051 28.9157 9.75569 32.7074C19.2426 38.2513 32.4308 40.6684 44.5569 41.8542C57.2119 43.1024 70.7787 43.4681 83.3535 41.1866C89.0105 40.1614 94.5648 38.3647 98.4762 35.2237C103.167 31.4386 103.456 26.2907 100.43 22.0192C94.5559 13.683 78.8862 8.62365 66.3713 6.80173L65.7865 6.72024C64.6677 6.57302 65.0963 5.36476 66.2152 5.51548Z"/>
</mask>
<path d="M66.2152 5.51548L66.6166 2.54244L66.6157 2.54233L66.2152 5.51548ZM98.9134 18.1575L96.9341 20.4119L96.9373 20.4147L98.9134 18.1575ZM96.3975 38.2749L97.8668 40.8905L97.8689 40.8893L96.3975 38.2749ZM62.1045 43.9983L62.0928 46.9983L62.0944 46.9983L62.1045 43.9983ZM27.2527 40.3475L27.9327 37.4256L27.9314 37.4253L27.2527 40.3475ZM1.72733 27.8369L-0.723134 29.5676L-0.718609 29.5739L1.72733 27.8369ZM4.30935 13.8188L2.19025 11.6952L2.18945 11.696L4.30935 13.8188ZM55.2781 0.380079L54.9793 3.36516L54.9804 3.36527L55.2781 0.380079ZM85.1156 12.8394L87.1441 10.6292L87.1429 10.6281L85.1156 12.8394ZM83.6347 13.5142L85.7134 11.3511L85.6873 11.326L85.6606 11.3016L83.6347 13.5142ZM23.148 5.0008L22.24 2.14149L22.2386 2.14197L23.148 5.0008ZM3.32124 17.4928L0.808648 15.8536L0.808379 15.854L3.32124 17.4928ZM9.75569 32.7074L8.24149 35.2973L8.24207 35.2976L9.75569 32.7074ZM44.5569 41.8542L44.8514 38.8686L44.8489 38.8684L44.5569 41.8542ZM83.3535 41.1866L82.8185 38.2347L82.818 38.2348L83.3535 41.1866ZM98.4762 35.2237L100.355 37.5629L100.36 37.5585L98.4762 35.2237ZM100.43 22.0192L97.9777 23.7473L97.982 23.7534L100.43 22.0192ZM66.3713 6.80173L66.8035 3.83302L66.7944 3.8317L66.7853 3.83043L66.3713 6.80173ZM65.7865 6.72024L66.2005 3.74895L66.1892 3.74737L66.1779 3.74588L65.7865 6.72024ZM65.8139 8.48852C77.5 10.0659 89.9668 14.2948 96.9341 20.4119L100.893 15.903C92.6377 8.65549 78.8016 4.18723 66.6166 2.54244L65.8139 8.48852ZM96.9373 20.4147C100.093 23.1774 101.192 25.9866 100.972 28.2931C100.755 30.5704 99.1618 33.2766 94.9261 35.6605L97.8689 40.8893C103.194 37.8925 106.482 33.7128 106.945 28.8629C107.405 24.0422 104.982 19.483 100.89 15.9003L96.9373 20.4147ZM94.9283 35.6593C90.7775 37.991 85.4324 39.3627 79.5889 40.1257C73.773 40.885 67.673 41.017 62.1145 40.9984L62.0944 46.9983C67.7284 47.0172 74.147 46.8871 80.3657 46.0752C86.5565 45.2669 92.7618 43.7581 97.8668 40.8905L94.9283 35.6593ZM62.1161 40.9984C50.4936 40.9532 38.7598 39.9454 27.9327 37.4256L26.5727 43.2694C37.9603 45.9197 50.166 46.952 62.0928 46.9983L62.1161 40.9984ZM27.9314 37.4253C23.1671 36.3188 18.1812 34.9135 13.8517 33.0124C9.47282 31.0896 6.08905 28.7974 4.17326 26.0998L-0.718609 29.5739C2.11786 33.5679 6.6614 36.408 11.4394 38.5061C16.2668 40.6259 21.6675 42.1302 26.574 43.2697L27.9314 37.4253ZM4.17778 26.1062C3.03596 24.4895 2.79773 22.896 3.14987 21.3047C3.52288 19.6192 4.60888 17.7594 6.42925 15.9415L2.18945 11.696C-0.175707 14.058 -2.01809 16.889 -2.70839 20.0083C-3.41957 23.222 -2.85604 26.5476 -0.723126 29.5675L4.17778 26.1062ZM6.42844 15.9423C11.3041 11.0769 19.0341 7.45951 27.9341 5.2974C36.7847 3.14729 46.4784 2.51423 54.9793 3.36516L55.5769 -2.605C46.3981 -3.52379 36.0235 -2.84229 26.5177 -0.533017C17.0613 1.76426 8.14689 5.75106 2.19025 11.6952L6.42844 15.9423ZM54.9804 3.36527C66.5068 4.51466 76.3539 8.87676 83.0883 15.0507L87.1429 10.6281C79.328 3.46354 68.2128 -1.34499 55.5758 -2.60512L54.9804 3.36527ZM83.087 15.0496C82.8824 14.8618 82.5706 14.4994 82.4017 13.9332C82.222 13.3306 82.2715 12.7172 82.475 12.2004C82.828 11.3041 83.4959 10.9794 83.654 10.9088C83.9017 10.7982 84.1623 10.7486 84.4438 10.7681C84.7314 10.788 85.2454 10.9014 85.7134 11.3511L81.556 15.6773C83.0936 17.1549 85.1009 16.8337 86.1003 16.3874C86.6337 16.1493 87.5933 15.5784 88.0578 14.3988C88.3171 13.7403 88.3774 12.976 88.1514 12.2182C87.9363 11.4969 87.5211 10.9752 87.1441 10.6292L83.087 15.0496ZM85.6606 11.3016C70.3458 -2.72107 43.8932 -4.73408 22.24 2.14149L24.0559 7.86012C44.545 1.35415 68.4589 3.68639 81.6087 15.7268L85.6606 11.3016ZM22.2386 2.14197C14.0326 4.75236 5.16165 9.18117 0.808648 15.8536L5.83383 19.132C8.99718 14.2831 16.133 10.3805 24.0574 7.85964L22.2386 2.14197ZM0.808379 15.854C-1.67932 19.6686 -1.74734 23.6491 -0.0147605 27.1862C1.619 30.5216 4.73014 33.2443 8.24149 35.2973L11.2699 30.1176C8.29606 28.3789 6.28714 26.412 5.37355 24.5469C4.55878 22.8835 4.51612 21.1525 5.8341 19.1316L0.808379 15.854ZM8.24207 35.2976C18.3264 41.1906 32.0748 43.6479 44.2649 44.8399L44.8489 38.8684C32.7867 37.6889 20.1589 35.3121 11.2693 30.1173L8.24207 35.2976ZM44.2624 44.8397C57.037 46.0997 70.9194 46.4916 83.8891 44.1384L82.818 38.2348C70.638 40.4447 57.3869 40.1051 44.8514 38.8686L44.2624 44.8397ZM83.8885 44.1385C89.7197 43.0817 95.8619 41.1706 100.355 37.5629L96.5978 32.8846C93.2677 35.5587 88.3013 37.241 82.8185 38.2347L83.8885 44.1385ZM100.36 37.5585C103.218 35.2523 104.936 32.3486 105.325 29.1677C105.711 26.0104 104.745 22.9212 102.878 20.285L97.982 23.7534C99.1406 25.3888 99.544 27.0093 99.3692 28.44C99.1972 29.8473 98.4253 31.41 96.5924 32.889L100.36 37.5585ZM102.882 20.2912C99.4492 15.4191 93.4203 11.7979 87.0237 9.18969C80.5393 6.54568 73.2501 4.77152 66.8035 3.83302L65.9391 9.77043C72.0074 10.6539 78.8105 12.3204 84.7582 14.7456C90.7937 17.2065 95.5367 20.2832 97.9777 23.7472L102.882 20.2912ZM66.7853 3.83043L66.2005 3.74895L65.3725 9.69154L65.9573 9.77302L66.7853 3.83043ZM66.1779 3.74588C66.4127 3.77677 67.0833 3.93435 67.6158 4.63763C68.1888 5.39425 68.2369 6.31174 67.9886 7.0105C67.5133 8.34813 66.3166 8.55622 65.8148 8.48863L66.6157 2.54233C64.9949 2.32402 63.0244 3.06088 62.3348 5.00176C61.9794 6.00215 62.0602 7.23989 62.8325 8.25975C63.5644 9.22628 64.601 9.5901 65.3951 9.6946L66.1779 3.74588Z" fill="#CEDCFF" mask="url(#path-1-inside-1_53_3492)"/>
</svg>
