<svg width="85" height="37" viewBox="0 0 85 37" fill="none" xmlns="http://www.w3.org/2000/svg">
<mask id="path-1-inside-1_539_4974" fill="white">
<path d="M53.9815 4.63802C63.6218 5.99281 74.2441 9.64955 80.3916 15.2688C86.2458 20.6048 86.0814 27.6611 78.3596 32.1857C70.8837 36.5578 59.7014 37.0301 50.6613 36.9986C41.151 36.9601 31.4831 36.1024 22.5118 33.9286C14.7008 32.0399 5.73351 29.0353 1.89515 23.4083C-0.74983 19.5093 0.600012 15.1352 3.98063 11.6203C12.7298 2.53047 30.8679 -1.16856 45.1477 0.319612C54.906 1.3327 63.3715 5.18854 69.2472 10.7968C69.8042 11.329 68.5754 11.8888 68.0511 11.3642C56.5557 0.405875 36.2154 -1.4211 19.1964 4.20522C12.6822 6.36267 6.21799 9.86564 3.18254 14.7099C0.108724 19.6171 3.14156 24.3155 8.3796 27.504C16.0421 32.1659 26.6941 34.1984 36.4883 35.1955C46.7096 36.2452 57.6674 36.5527 67.824 34.6342C72.3931 33.7721 76.8793 32.2612 80.0385 29.62C83.8275 26.437 84.0606 22.1081 81.6165 18.5162C76.8721 11.5062 64.2158 7.25171 54.1076 5.71963L53.6353 5.65111C52.7316 5.52731 53.0778 4.51128 53.9815 4.63802Z"/>
</mask>
<path d="M53.9815 4.63802L54.399 1.66721L54.3982 1.66709L53.9815 4.63802ZM80.3916 15.2688L78.3675 17.4831L78.3707 17.486L80.3916 15.2688ZM78.3596 32.1857L79.8741 34.7753L79.8762 34.7741L78.3596 32.1857ZM50.6613 36.9986L50.6492 39.9986L50.6508 39.9986L50.6613 36.9986ZM22.5118 33.9286L23.2182 31.013L23.2169 31.0126L22.5118 33.9286ZM1.89515 23.4083L-0.587514 25.0924L-0.583172 25.0988L1.89515 23.4083ZM3.98063 11.6203L1.81918 9.53989L1.8184 9.54071L3.98063 11.6203ZM45.1477 0.319612L44.8367 3.30345L44.8379 3.30357L45.1477 0.319612ZM69.2472 10.7968L71.3197 8.62778L71.3185 8.62664L69.2472 10.7968ZM68.0511 11.3642L70.1729 9.24342L70.1473 9.21779L70.1211 9.19279L68.0511 11.3642ZM19.1964 4.20522L18.2548 1.35684L18.2532 1.35735L19.1964 4.20522ZM3.18254 14.7099L0.640389 13.1169L0.640132 13.1173L3.18254 14.7099ZM8.3796 27.504L6.81971 30.0666L6.8203 30.0669L8.3796 27.504ZM36.4883 35.1955L36.7947 32.2112L36.7921 32.211L36.4883 35.1955ZM67.824 34.6342L67.2677 31.6862L67.2671 31.6863L67.824 34.6342ZM80.0385 29.62L81.9627 31.9216L81.9681 31.917L80.0385 29.62ZM81.6165 18.5162L79.1321 20.1977L79.1363 20.2038L81.6165 18.5162ZM54.1076 5.71963L54.5571 2.75351L54.5477 2.75208L54.5383 2.75071L54.1076 5.71963ZM53.6353 5.65111L54.066 2.68219L54.0542 2.68049L54.0425 2.67888L53.6353 5.65111ZM53.564 7.60882C62.937 8.92605 72.8631 12.4517 78.3675 17.4831L82.4156 13.0545C75.6251 6.8474 64.3066 3.05957 54.399 1.66721L53.564 7.60882ZM78.3707 17.486C80.8275 19.7253 81.6436 21.9627 81.4791 23.7578C81.3179 25.5174 80.138 27.6665 76.8429 29.5973L79.8762 34.7741C84.3029 32.1802 87.0662 28.5389 87.4541 24.3052C87.8387 20.107 85.8099 16.1483 82.4125 13.0516L78.3707 17.486ZM76.845 29.5961C73.5924 31.4983 69.3699 32.6351 64.6929 33.2709C60.0423 33.9031 55.1524 34.0143 50.6718 33.9986L50.6508 39.9986C55.2102 40.0145 60.4316 39.9053 65.5011 39.2162C70.5442 38.5307 75.6508 37.2452 79.8741 34.7753L76.845 29.5961ZM50.6734 33.9986C41.3219 33.9608 31.8992 33.1164 23.2182 31.013L21.8053 36.8442C31.0671 39.0883 40.9802 39.9594 50.6492 39.9986L50.6734 33.9986ZM23.2169 31.0126C19.3856 30.0862 15.4043 28.916 11.9611 27.3419C8.47497 25.7481 5.84596 23.8764 4.37347 21.7177L-0.583172 25.0988C1.7827 28.5672 5.55651 31.0112 9.46639 32.7987C13.4192 34.6058 17.827 35.8823 21.8067 36.8446L23.2169 31.0126ZM4.3778 21.7241C3.52706 20.47 3.34809 19.2391 3.61273 17.994C3.89466 16.6677 4.72236 15.1769 6.14286 13.6999L1.8184 9.54071C-0.141724 11.5787 -1.67925 14.0324 -2.25615 16.7465C-2.85034 19.542 -2.38174 22.4475 -0.587506 25.0924L4.3778 21.7241ZM6.14207 13.7007C9.98194 9.71134 16.1071 6.7121 23.2258 4.91162C30.2997 3.12246 38.0499 2.59616 44.8367 3.30345L45.4587 -2.66423C37.9657 -3.44511 29.507 -2.86598 21.7546 -0.905208C14.0469 1.04425 6.72845 4.43945 1.81918 9.53989L6.14207 13.7007ZM44.8379 3.30357C54.0134 4.25616 61.835 7.8692 67.1758 12.9669L71.3185 8.62664C64.908 2.50787 55.7985 -1.59076 45.4575 -2.66435L44.8379 3.30357ZM67.1746 12.9658C66.9554 12.7563 66.6538 12.3822 66.4932 11.8217C66.3242 11.2316 66.3699 10.6331 66.563 10.1224C66.905 9.2182 67.5731 8.85722 67.79 8.75639C68.0835 8.61997 68.4061 8.5545 68.7529 8.57946C69.1123 8.60533 69.6794 8.74971 70.1729 9.24342L65.9292 13.485C67.4121 14.9686 69.3641 14.6413 70.3193 14.1972C70.8393 13.9555 71.7429 13.3876 72.175 12.2451C72.7367 10.7601 72.1283 9.40036 71.3197 8.62778L67.1746 12.9658ZM70.1211 9.19279C57.5376 -2.80288 35.8877 -4.47246 18.2548 1.35684L20.1381 7.05361C36.5431 1.63025 55.5739 3.61463 65.9811 13.5357L70.1211 9.19279ZM18.2532 1.35735C11.5774 3.56833 4.25359 7.35067 0.640389 13.1169L5.72469 16.3028C8.18238 12.3806 13.7871 9.157 20.1396 7.0531L18.2532 1.35735ZM0.640132 13.1173C-1.44823 16.4513 -1.50592 19.935 -0.0504448 23.0286C1.32096 25.9435 3.92197 28.3026 6.81971 30.0666L9.93949 24.9414C7.59919 23.5168 6.06476 21.9325 5.37869 20.4743C4.7767 19.1947 4.73949 17.8756 5.72495 16.3024L0.640132 13.1173ZM6.8203 30.0669C15.0911 35.0989 26.3195 37.1758 36.1844 38.1801L36.7921 32.211C27.0687 31.221 16.9931 29.2329 9.93889 24.9411L6.8203 30.0669ZM36.1818 38.1798C46.5277 39.2423 57.8139 39.5781 68.3808 37.5821L67.2671 31.6863C57.5209 33.5274 46.8916 33.2481 36.7947 32.2112L36.1818 38.1798ZM68.3802 37.5822C73.1362 36.6848 78.2206 35.0501 81.9627 31.9216L78.1143 27.3184C75.5379 29.4723 71.65 30.8593 67.2677 31.6862L68.3802 37.5822ZM81.9681 31.917C84.3735 29.8964 85.8183 27.3507 86.1445 24.5711C86.4678 21.8164 85.659 19.1244 84.0968 16.8285L79.1363 20.2038C80.0182 21.4999 80.3149 22.7683 80.1854 23.8718C80.0588 24.9504 79.4925 26.1606 78.1088 27.3229L81.9681 31.917ZM84.101 16.8346C81.2469 12.6177 76.2612 9.51628 71.0458 7.30222C65.7501 5.05411 59.8081 3.54939 54.5571 2.75351L53.658 8.68576C58.5152 9.42195 63.9555 10.8105 68.7012 12.8252C73.527 14.8738 77.2417 17.4046 79.1321 20.1977L84.101 16.8346ZM54.5383 2.75071L54.066 2.68219L53.2045 8.62003L53.6769 8.68855L54.5383 2.75071ZM54.0425 2.67888C54.3645 2.72299 55.0714 2.92155 55.6072 3.65817C56.1659 4.42634 56.2045 5.33181 55.9698 6.01953C55.5077 7.3737 54.2639 7.70697 53.5649 7.60895L54.3982 1.66709C52.7954 1.44233 50.9266 2.22024 50.2914 4.08169C49.9701 5.02305 50.0352 6.19782 50.7549 7.18736C51.4516 8.14534 52.4542 8.51733 53.2281 8.62335L54.0425 2.67888Z" fill="#45845E" mask="url(#path-1-inside-1_539_4974)"/>
</svg>
