<svg width="23" height="22" viewBox="0 0 23 22" fill="none" xmlns="http://www.w3.org/2000/svg">
<path fill-rule="evenodd" clip-rule="evenodd" d="M0.5 11C0.5 4.92487 5.42487 0 11.5 0C17.5751 0 22.5 4.92487 22.5 11C22.5 17.0751 17.5751 22 11.5 22C5.42487 22 0.5 17.0751 0.5 11ZM12.4167 6.72222C12.4167 6.21596 12.0063 5.80556 11.5 5.80556C10.9937 5.80556 10.5833 6.21596 10.5833 6.72222V11.6111C10.5833 12.1174 10.9937 12.5278 11.5 12.5278C12.0063 12.5278 12.4167 12.1174 12.4167 11.6111V6.72222ZM11.5 16.5C12.175 16.5 12.7222 15.9528 12.7222 15.2778C12.7222 14.6028 12.175 14.0556 11.5 14.0556C10.825 14.0556 10.2778 14.6028 10.2778 15.2778C10.2778 15.9528 10.825 16.5 11.5 16.5Z" fill="#F35640"/>
</svg>
