<svg width="310" height="310" viewBox="0 0 310 310" fill="none" xmlns="http://www.w3.org/2000/svg">
<mask id="mask0_740_7619" style="mask-type:alpha" maskUnits="userSpaceOnUse" x="0" y="0" width="310" height="310">
<path d="M310 155C310 240.604 240.604 310 155 310C69.3959 310 0 240.604 0 155C0 69.3959 69.3959 0 155 0C240.604 0 310 69.3959 310 155Z" fill="#1A5B40"/>
</mask>
<g mask="url(#mask0_740_7619)">
<path d="M310 155C310 240.604 240.604 310 155 310C69.3959 310 0 240.604 0 155C0 69.3959 69.3959 0 155 0C240.604 0 310 69.3959 310 155Z" fill="#1A5B40"/>
<path fill-rule="evenodd" clip-rule="evenodd" d="M161.018 226.456C148.133 238.461 129.381 245.995 115.318 251.081C93.0201 259.143 73.0707 258.61 57.162 251.662C41.3498 244.755 30.5079 231.887 26.1427 217.365C21.7781 202.844 23.8999 186.498 34.1838 173.549C44.5148 160.544 61.6329 152.717 83.9813 151.974C109.412 151.13 134.958 160.51 158.331 175.195C159.303 175.806 160.597 175.409 161.018 174.341C171.87 146.904 173.263 105.792 149.783 45.9476C148.462 42.5814 150.051 38.7549 153.398 37.3789L164.423 32.8452C165.149 32.5465 165.905 32.3247 166.678 32.1835C171.896 31.2303 177.093 34.0627 179.003 39.0073C203.263 101.824 203.35 149.457 189.444 184.61C183.307 200.131 173.189 215.114 161.018 226.456ZM135.285 191.336C141.292 195.271 142.544 203.668 137.155 208.412C127.632 216.793 116.898 222.659 106.4 226.454C96.2356 230.348 86.944 230.243 78.2702 226.454C69.5001 222.625 64.0037 215.769 61.8545 208.619C59.705 201.468 60.8933 194.195 65.3238 188.617C69.7073 183.099 78.7083 177.492 95.4639 176.936C111.146 176.414 121.162 182.086 135.285 191.336ZM191.082 203.286C186.873 207.819 187.193 214.584 191.989 218.49C192.755 219.114 193.321 219.58 193.544 219.79C213.149 238.315 235.012 242.927 267.134 245.868C297.021 248.607 333.492 244.54 363.451 218.015C368.401 213.632 368.046 206.001 363.178 201.527L361.518 200.001C356.649 195.527 349.107 195.902 344.171 200.303C319.738 222.091 291.221 229.333 269.526 227.346C244.581 225.061 227.972 216.279 211.548 200.763C206.174 195.685 196.501 197.429 191.48 202.857C191.347 203 191.215 203.143 191.082 203.286Z" fill="#F7F3EE"/>
</g>
</svg>
