<svg width="53" height="54" viewBox="0 0 53 54" fill="none" xmlns="http://www.w3.org/2000/svg">
<path fill-rule="evenodd" clip-rule="evenodd" d="M21.3366 53.2738C21.3408 53.3385 20.0199 53.0303 19.9273 52.8914C19.6543 52.4819 19.6352 52.0151 19.4405 51.5769C18.992 50.5679 16.8258 48.2502 15.3797 48.2502C11.6672 48.2502 9.65493 48.8592 6.00295 49.1913C5.364 49.2494 2.38349 50.183 2.69231 48.9478C3.39633 46.1317 8.39185 43.4633 10.7743 42.5699C11.9571 42.1264 12.8078 41.2044 14.0362 41.4501C15.2833 41.6995 17.3972 43.9096 18.7102 44.5661C19.1478 44.7849 19.9157 45.8435 20.4142 45.345C20.6273 45.1319 19.8045 43.7355 19.7326 43.5436C19.5506 43.0583 19.3907 42.5672 19.1971 42.083C18.8567 41.2321 18.505 40.3853 18.1259 39.5514C17.5369 38.2554 17.1524 36.9226 16.5193 35.6564C16.2344 35.0867 15.556 34.239 14.9613 34.0011C12.7324 33.1095 6.25311 35.1737 4.1042 36.0946C3.42476 36.3858 2.77865 36.3013 2.10808 36.4354C1.97391 36.4622 0.827852 36.8449 0.793549 36.7762C0.628214 36.4457 0.903354 35.676 1.03698 35.3643C2.56781 31.7924 3.73895 33.0112 6.6359 31.0799C7.44171 30.5427 12.0685 27.559 12.9651 27.3797C14.1816 27.1365 16.0539 27.7926 17.1522 28.1587C19.9812 29.1017 21.5916 31.3603 22.7024 33.9524C23.1094 34.9019 23.4102 35.9821 23.9196 36.8736C23.9723 36.9657 24.4518 37.7534 24.5038 37.7013C24.6659 37.5393 24.1245 36.0089 24.0657 35.7538C23.7297 34.2978 23.4891 32.8018 22.8972 31.4207C22.5777 30.6751 22.1015 30.0008 21.8262 29.2298C19.9542 23.9883 17.8337 18.7618 16.6654 13.3093C16.3817 11.986 15.9243 10.7428 15.5943 9.41434C14.8548 6.43857 15.0831 2.26686 15.3797 1.97022C16.3427 1.00725 18.2008 6.30104 18.3693 6.54184C18.8222 7.18867 19.1339 7.94011 19.5865 8.58668C20.8049 10.3273 22.3301 11.9316 23.2867 13.8449C23.8148 14.9011 23.6784 16.4827 23.9683 17.6424C24.3657 19.2319 25.0321 20.7291 25.429 22.3163C25.8437 23.9756 26.6967 25.2428 27.279 26.7955C27.4578 27.272 27.714 27.8018 27.8146 28.3047C27.8602 28.5327 27.9367 28.7197 28.0093 28.9377C28.0255 28.9863 28.058 29.1351 28.058 29.0838C28.058 26.8224 27.8515 24.5594 27.9607 22.2676C28.2067 17.0998 29.5673 12.0819 29.5673 6.88263C29.5673 6.55608 30.2409 0.901378 30.7847 0.728414C31.4896 0.504225 32.269 2.35418 32.3424 2.50089C32.71 3.23603 32.5668 6.17248 32.9126 6.97936C33.7792 9.00136 34.1587 12.0301 33.9977 14.283C33.8534 16.3052 34.0146 18.3608 33.7057 20.3688C33.3806 22.4814 33.2981 24.6254 33.1214 26.7468C33.0862 27.1688 33.0727 27.5873 33.0727 28.0127C33.0727 28.2885 32.7969 28.8403 33.0727 28.8403C33.3021 28.8403 34.0288 27.182 34.1438 26.9902C35.145 25.3215 36.6534 23.8588 37.7466 22.219C39.6688 19.3356 41.8211 16.5326 43.6864 13.6015C44.1972 12.7988 45.3096 11.241 45.9934 10.5572C47.1609 9.38971 49.1543 7.51943 50.1618 7.82422C50.9006 8.04777 49.6544 11.0354 48.9762 12.1657C48.5666 12.8485 47.6832 15.0131 47.207 15.6479C46.2837 16.8791 46.1305 17.5979 45.0983 18.8596C43.8382 20.3996 43.112 22.5399 42.2258 24.3124C41.5509 25.6622 40.7096 26.9067 40.0349 28.2561C39.1589 30.0081 37.262 31.3203 36.0913 32.8813C36.008 32.9924 34.9304 34.2521 35.0202 34.3419C35.2175 34.5392 36.2149 33.4614 36.3347 33.3682C37.5506 32.4224 39.0736 31.6735 40.3757 30.8364C41.5691 30.0692 42.649 29.1632 43.9298 28.5482C44.6639 28.1956 47.125 27.1435 48.0097 27.5791C49.121 28.1263 50.9235 30.6607 51.3957 31.6053C51.69 32.1938 52.766 34.3923 52.2772 34.6367C51.9699 34.7903 50.1294 33.0811 49.7384 33.2114C48.6901 33.5609 48.0444 33.9379 46.6563 34.7314C45.6747 35.2924 44.5463 36.0785 43.5403 36.5814C40.8247 37.9393 38.2954 39.5927 35.6531 41.0606C34.0383 41.9577 32.6255 43.1111 31.0766 44.0792C31.0066 44.1229 29.842 45.0929 30.0541 45.199C30.9717 45.6578 34.4218 44.2934 35.3123 43.9819C38.1696 42.9818 40.2571 42.9567 41.7693 42.6025C43.9433 42.0931 45.928 39.4816 46.8803 39.4453C48.0656 39.4002 46.3665 44.2613 44.9408 45.2253C41.2616 47.7129 34.3967 51.6354 30.1515 52.6967C29.3003 52.9095 28.4714 53.5427 27.5711 53.7678C26.1733 54.1173 22.9644 53.2738 21.3366 53.2738Z" fill="#6DCF6E"/>
</svg>
