<svg width="52" height="48" viewBox="0 0 52 48" fill="none" xmlns="http://www.w3.org/2000/svg">
<path fill-rule="evenodd" clip-rule="evenodd" d="M14.2995 44.855C18.761 46.3722 28.2711 48.8584 36.0259 44.8361C39.4195 43.0759 41.3392 41.3542 44.0137 38.5418C46.5047 35.9222 48.389 33.7739 49.6514 30.3986C51.2675 26.0771 51.1776 21.4484 51.3396 16.9274C51.4161 14.7897 51.6742 12.6546 51.6243 10.5159C51.5982 9.38832 51.3987 5.62193 49.3913 5.23715C46.8396 4.74844 45.5649 8.51214 45.2996 10.2056C44.6142 14.5806 44.9993 20.7293 45.1047 25.1105C45.1239 25.9014 45.6478 29.8288 44.4228 30.6632C44.0501 30.9174 43.7899 29.9429 43.741 29.4942C43.4842 27.1411 43.5584 26.4039 43.6437 24.0388C43.8059 19.5242 44.8467 12.9123 43.546 8.25712C43.3106 7.41397 42.3794 5.19329 41.1403 4.77758C37.9708 3.71455 38.2246 9.48625 38.2856 10.7902C38.4268 13.8125 38.9383 13.6864 39.2597 16.7325C39.5433 19.4199 39.6126 22.126 39.8442 24.8183C39.9076 25.5548 40.9962 30.1376 39.928 31.0321C39.6418 31.2718 35.1845 26.6914 34.7784 8.35473C34.7268 6.02293 32.8876 3.16847 30.1998 4.75024C28.807 5.56996 28.6192 8.55689 28.7385 9.71844C29.3801 15.9662 29.4516 20.2502 31.5539 25.8891C32.6178 28.7426 37.4641 34.8673 36.3956 34.9862C34.9647 35.1457 30.5113 28.4047 29.4303 26.5091C25.447 19.5236 27.1189 16.2456 25.5335 8.60495C25.3554 7.74708 24.2533 -0.404478 20.2553 1.18811C18.4035 1.92553 18.0713 4.84697 18.0557 6.26203C17.9824 12.9667 21.5391 22.4555 24.6471 27.8382C25.6098 29.5056 29.1251 33.1368 30.3948 34.56C30.9285 35.1586 32.0603 36.6563 31.2715 36.8008C29.4026 37.1423 26.9981 33.7505 26.1084 32.904C24.2233 31.1108 23.0431 30.5644 21.8482 28.1888C18.9937 22.5126 18.5023 16.205 15.7818 10.4979C15.6052 10.1266 13.4458 6.42273 10.8136 6.89342C8.97415 7.22233 7.66783 8.65031 7.50142 12.9333C7.40831 15.3342 7.93757 18.8423 8.60049 21.0011C10.3319 26.64 14.2085 31.7764 18.9967 35.2421C22.3493 37.6682 25.777 39.825 29.575 41.3725C29.9932 41.5431 30.7858 42.2253 30.3948 42.4508C28.3018 43.6592 24.7967 42.3304 22.9322 41.6738C15.3018 38.9875 10.9677 34.2689 7.82523 26.6139C6.02839 22.2365 6.89016 22.0046 4.96867 17.6093C4.69713 16.9887 3.62539 16.7012 3.06639 16.8337C0.462147 17.4513 0.693435 22.0095 0.70545 23.6612C0.756514 30.6104 3.25954 35.3662 7.8006 40.3852C8.72155 41.4028 12.1755 44.1329 14.2995 44.855Z" fill="#99DB9A"/>
</svg>
