<svg width="48" height="56" viewBox="0 0 48 56" fill="none" xmlns="http://www.w3.org/2000/svg">
<path fill-rule="evenodd" clip-rule="evenodd" d="M22.7542 26.2143C21.6342 24.9028 21.0651 24.2791 18.4163 23.5543C16.1207 22.9262 13.9575 23.7876 13.9575 26.2143C10.4353 26.2143 10.5981 27.5295 12.2765 28.501C13.9549 29.4724 14.9142 30.1343 15.9817 31.733C15.7306 32.8985 13.052 33.7843 12.2765 34.2231C9.19797 35.9643 6.3171 38.6178 3.68934 40.927C1.79714 42.5893 1.27878 49.3445 1.06112 51.894C0.975457 52.8909 0.990076 52.9523 0.782935 53.9182C0.539184 55.0432 0.734937 56.3642 1.7571 55.1901C2.44173 54.4038 2.58656 54.4605 3.20367 53.9182C4.77084 52.5405 5.8821 50.1853 7.54476 48.7247C10.6171 46.0243 14.1355 43.6316 18.4163 42.3885C21.2295 41.5715 24.2296 41.3338 26.9758 40.3054C28.4886 39.7395 29.9548 39.0438 31.5589 38.7299C31.7685 38.6889 32.9379 38.2724 33.1291 38.4226C35.1139 39.9901 37.5893 42.2842 39.9397 43.47C40.3182 43.6615 41.7208 44.8864 41.9551 44.8405C42.3628 44.7607 42.9446 42.9187 43.1413 42.5718C44.1981 40.708 46.0129 38.9134 46.9817 37.2047C47.1467 36.9137 45.2316 35.8226 45.0534 35.6818C43.4502 34.4157 40.039 32.7221 38.1009 32.2909C37.7398 32.2108 35.1191 31.92 35.24 31.3583C35.731 29.0749 37.2019 27.232 37.7031 24.9028C38.7188 20.182 39.5078 14.5203 40.4262 10.252C40.5959 9.46311 41.6967 8.54514 42.1988 8.00477C43.4971 6.60517 44.5824 4.94739 45.719 3.37895C45.9011 3.12654 47.2886 1.41304 47.1808 1.3279C45.1304 -0.291418 33.0902 2.98498 31.2794 4.57629C28.6937 6.84858 28.6631 16.2185 26.9758 20.3996C26.1323 22.4898 25.4517 24.5345 22.7542 26.2143Z" fill="#665735"/>
</svg>
