<svg width="52" height="54" viewBox="0 0 52 54" fill="none" xmlns="http://www.w3.org/2000/svg">
<path fill-rule="evenodd" clip-rule="evenodd" d="M20.8366 53.2741C20.8408 53.3389 19.5199 53.0307 19.4273 52.8918C19.1543 52.4823 19.1352 52.0155 18.9405 51.5773C18.492 50.5682 16.3258 48.2506 14.8797 48.2506C11.1672 48.2506 9.15493 48.8596 5.50295 49.1916C4.864 49.2498 1.88349 50.1834 2.19231 48.9482C2.89633 46.1321 7.89185 43.4637 10.2743 42.5702C11.4571 42.1267 12.3078 41.2048 13.5362 41.4505C14.7833 41.6999 16.8972 43.9099 18.2102 44.5664C18.6478 44.7853 19.4157 45.8439 19.9142 45.3454C20.1273 45.1323 19.3045 43.7358 19.2326 43.544C19.0506 43.0586 18.8907 42.5676 18.6971 42.0834C18.3567 41.2324 18.005 40.3857 17.6259 39.5518C17.0369 38.2558 16.6524 36.923 16.0193 35.6568C15.7344 35.0871 15.056 34.2394 14.4613 34.0015C12.2324 33.1099 5.75311 35.174 3.6042 36.0949C2.92476 36.3862 2.27865 36.3017 1.60808 36.4357C1.47391 36.4626 0.327852 36.8453 0.293549 36.7766C0.128214 36.446 0.403354 35.6764 0.536984 35.3646C2.06781 31.7927 3.23895 33.0116 6.1359 31.0802C6.94171 30.543 11.5685 27.5594 12.4651 27.3801C13.6816 27.1368 15.5539 27.793 16.6522 28.159C19.4812 29.102 21.0916 31.3607 22.2024 33.9527C22.6094 34.9023 22.9102 35.9824 23.4196 36.874C23.4723 36.966 23.9518 37.7538 24.0038 37.7016C24.1659 37.5397 23.6245 36.0092 23.5657 35.7542C23.2297 34.2982 22.9891 32.8021 22.3972 31.421C22.0777 30.6754 21.6015 30.0012 21.3262 29.2301C19.4542 23.9887 17.3337 18.7621 16.1654 13.3097C15.8817 11.9864 15.4243 10.7432 15.0943 9.4147C14.3548 6.43894 14.5831 2.26722 14.8797 1.97059C15.8427 1.00761 17.7008 6.30141 17.8693 6.5422C18.3222 7.18904 18.6339 7.94048 19.0865 8.58704C20.3049 10.3276 21.8301 11.932 22.7867 13.8453C23.3148 14.9015 23.1784 16.4831 23.4683 17.6428C23.8657 19.2323 24.5321 20.7295 24.929 22.3167C25.3437 23.9759 26.1967 25.2432 26.779 26.7959C26.9578 27.2723 27.214 27.8022 27.3146 28.3051C27.3602 28.533 27.4367 28.7201 27.5093 28.9381C27.5255 28.9867 27.558 29.1355 27.558 29.0841C27.558 26.8227 27.3515 24.5598 27.4607 22.268C27.7067 17.1002 29.0673 12.0823 29.0673 6.883C29.0673 6.55645 29.7409 0.901744 30.2847 0.72878C30.9896 0.504591 31.769 2.35455 31.8424 2.50125C32.21 3.2364 32.0668 6.17284 32.4126 6.97972C33.2792 9.00172 33.6587 12.0304 33.4977 14.2834C33.3534 16.3056 33.5146 18.3612 33.2057 20.3692C32.8806 22.4817 32.7981 24.6257 32.6214 26.7471C32.5862 27.1692 32.5727 27.5877 32.5727 28.013C32.5727 28.2889 32.2969 28.8407 32.5727 28.8407C32.8021 28.8407 33.5288 27.1823 33.6438 26.9906C34.645 25.3218 36.1534 23.8591 37.2466 22.2193C39.1688 19.336 41.3211 16.533 43.1864 13.6018C43.6972 12.7992 44.8096 11.2414 45.4934 10.5575C46.6609 9.39007 48.6543 7.5198 49.6618 7.82458C50.4006 8.04814 49.1544 11.0357 48.4762 12.1661C48.0666 12.8489 47.1832 15.0134 46.707 15.6483C45.7837 16.8794 45.6305 17.5983 44.5983 18.86C43.3382 20.4 42.612 22.5403 41.7258 24.3128C41.0509 25.6625 40.2096 26.9071 39.5349 28.2565C38.6589 30.0084 36.762 31.3206 35.5913 32.8817C35.508 32.9928 34.4304 34.2524 34.5202 34.3423C34.7175 34.5396 35.7149 33.4618 35.8347 33.3685C37.0506 32.4228 38.5736 31.6739 39.8757 30.8368C41.0691 30.0696 42.149 29.1636 43.4298 28.5485C44.1639 28.196 46.625 27.1439 47.5097 27.5795C48.621 28.1267 50.4235 30.6611 50.8957 31.6056C51.19 32.1942 52.266 34.3927 51.7772 34.6371C51.4699 34.7907 49.6294 33.0815 49.2384 33.2118C48.1901 33.5613 47.5444 33.9382 46.1563 34.7318C45.1747 35.2928 44.0463 36.0788 43.0403 36.5818C40.3247 37.9397 37.7954 39.593 35.1531 41.061C33.5383 41.9581 32.1255 43.1115 30.5766 44.0796C30.5066 44.1233 29.342 45.0933 29.5541 45.1994C30.4717 45.6581 33.9218 44.2938 34.8123 43.9822C37.6696 42.9822 39.7571 42.9571 41.2693 42.6028C43.4433 42.0935 45.428 39.482 46.3803 39.4457C47.5656 39.4006 45.8665 44.2617 44.4408 45.2256C40.7616 47.7133 33.8967 51.6357 29.6515 52.6971C28.8003 52.9099 27.9714 53.5431 27.0711 53.7682C25.6733 54.1177 22.4644 53.2741 20.8366 53.2741Z" fill="#99DB9A"/>
</svg>
