<svg width="48" height="56" viewBox="0 0 48 56" fill="none" xmlns="http://www.w3.org/2000/svg">
<path fill-rule="evenodd" clip-rule="evenodd" d="M22.7542 26.2142C21.6342 24.9027 21.0651 24.279 18.4163 23.5542C16.1207 22.9261 13.9575 23.7875 13.9575 26.2142C10.4353 26.2142 10.5981 27.5294 12.2765 28.5008C13.9549 29.4723 14.9142 30.1342 15.9817 31.7328C15.7306 32.8984 13.052 33.7842 12.2765 34.223C9.19797 35.9641 6.3171 38.6176 3.68934 40.9269C1.79714 42.5892 1.27878 49.3443 1.06112 51.8938C0.975457 52.8908 0.990076 52.9522 0.782935 53.918C0.539184 55.0431 0.734937 56.3641 1.7571 55.19C2.44173 54.4036 2.58656 54.4604 3.20367 53.918C4.77084 52.5404 5.8821 50.1852 7.54476 48.7246C10.6171 46.0242 14.1355 43.6315 18.4163 42.3884C21.2295 41.5713 24.2296 41.3337 26.9758 40.3053C28.4886 39.7393 29.9548 39.0437 31.5589 38.7298C31.7685 38.6888 32.9379 38.2722 33.1291 38.4225C35.1139 39.99 37.5893 42.284 39.9397 43.4699C40.3182 43.6614 41.7208 44.8862 41.9551 44.8404C42.3628 44.7606 42.9446 42.9186 43.1413 42.5717C44.1981 40.7079 46.0129 38.9133 46.9817 37.2046C47.1467 36.9136 45.2316 35.8225 45.0534 35.6817C43.4502 34.4156 40.039 32.722 38.1009 32.2908C37.7398 32.2107 35.1191 31.9199 35.24 31.3582C35.731 29.0748 37.2019 27.2318 37.7031 24.9027C38.7188 20.1819 39.5078 14.5201 40.4262 10.2519C40.5959 9.46299 41.6967 8.54501 42.1988 8.00465C43.4971 6.60505 44.5824 4.94727 45.719 3.37883C45.9011 3.12642 47.2886 1.41291 47.1808 1.32777C45.1304 -0.29154 33.0902 2.98485 31.2794 4.57617C28.6937 6.84846 28.6631 16.2183 26.9758 20.3995C26.1323 22.4896 25.4517 24.5343 22.7542 26.2142Z" fill="#99DB9A"/>
</svg>
