<svg width="50" height="52" viewBox="0 0 50 52" fill="none" xmlns="http://www.w3.org/2000/svg">
<path fill-rule="evenodd" clip-rule="evenodd" d="M11.3834 30.0444C10.7144 31.1888 9.05287 35.3804 7.9759 38.0849C6.86274 40.8809 5.64967 43.6504 4.81364 46.5417C4.74343 46.7845 5.34007 46.5457 5.56338 46.4275C5.97289 46.2113 6.31312 45.8807 6.65489 45.5686C7.23266 45.0416 7.7331 44.4335 8.31737 43.9136C10.7908 41.7138 17.4191 35.9077 20.4347 34.1323C22.2271 33.077 24.7995 37.1737 25.2527 37.7821C28.4669 42.0986 31.9319 47.396 35.6178 51.3593C35.7567 51.5084 35.9528 51.0686 35.9788 50.8669C36.0657 50.2 35.9973 49.5205 35.9441 48.8503C35.8285 47.3953 35.7682 45.9265 35.4718 44.4975C35.41 44.1987 32.7874 34.6758 32.4862 32.7816C32.3504 31.9283 32.0523 30.9791 32.4061 30.1903C32.819 29.2708 33.7976 28.7218 34.5885 28.0967C38.1513 25.2802 42.0429 22.9042 45.8373 20.4091C46.1872 20.179 50.273 18.3473 49.9253 17.0511C49.5802 15.7653 46.2221 16.1445 45.6913 16.1751C38.7977 16.5754 38.6183 16.4408 31.9681 18.3653C30.0907 18.9084 28.3475 19.9365 26.4206 20.2631C26.1088 20.3157 26.1821 19.6634 26.1744 19.3473C26.1638 18.8929 26.2653 18.4404 26.3671 17.9978C26.5424 17.2348 26.8146 16.4968 27.0045 15.7372C27.9519 11.947 28.8578 8.1467 29.7783 4.35007C29.9336 3.70983 30.6069 1.42103 30.2163 0.700053C30.0752 0.439624 29.6141 0.811707 29.3756 0.987697C28.8943 1.34277 28.4941 1.80022 28.1068 2.25644C27.4583 3.02071 26.793 3.78344 26.2746 4.64205C24.1342 8.1866 22.0975 11.7949 20.1427 15.4452C20.0561 15.607 18.6114 19.6739 18.2449 19.8252C17.3417 20.1976 16.3034 19.5786 15.3496 19.3674C12.281 18.6873 6.59767 17.0325 3.51211 16.4504C2.49978 16.2593 1.06929 15.3645 0.433989 16.1751C-0.1478 16.9178 1.22332 17.902 1.77449 18.6672C2.94549 20.2925 4.28722 21.788 5.57947 23.3181C7.49031 25.5806 10.9285 28.9538 11.3834 30.0444Z" fill="#F8F55E"/>
</svg>
