<svg width="52" height="48" viewBox="0 0 52 48" fill="none" xmlns="http://www.w3.org/2000/svg">
<path fill-rule="evenodd" clip-rule="evenodd" d="M14.3014 44.8551C18.7629 46.3723 28.2731 48.8585 36.0278 44.8362C39.4214 43.076 41.3411 41.3542 44.0157 38.5418C46.5067 35.9223 48.3909 33.774 49.6534 30.3987C51.2694 26.0772 51.1796 21.4484 51.3415 16.9275C51.4181 14.7897 51.6761 12.6547 51.6263 10.516C51.6001 9.38839 51.4007 5.62199 49.3933 5.23721C46.8416 4.7485 45.5668 8.5122 45.3016 10.2057C44.6161 14.5807 45.0012 20.7293 45.1066 25.1106C45.1259 25.9015 45.6497 29.8289 44.4248 30.6633C44.052 30.9174 43.7919 29.943 43.7429 29.4942C43.4861 27.1411 43.5603 26.404 43.6456 24.0388C43.8078 19.5242 44.8486 12.9124 43.548 8.25718C43.3125 7.41403 42.3813 5.19336 41.1423 4.77764C37.9727 3.71461 38.2266 9.48631 38.2875 10.7902C38.4287 13.8126 38.9403 13.6864 39.2617 16.7325C39.5452 19.42 39.6146 22.1261 39.8462 24.8183C39.9096 25.5548 40.9981 30.1376 39.93 31.0322C39.6437 31.2719 35.1865 26.6915 34.7804 8.35479C34.7287 6.02299 32.8895 3.16853 30.2018 4.7503C28.8089 5.57002 28.6212 8.55695 28.7404 9.7185C29.382 15.9663 29.4535 20.2502 31.5558 25.8892C32.6198 28.7427 37.466 34.8673 36.3976 34.9863C34.9666 35.1458 30.5133 28.4048 29.4322 26.5091C25.4489 19.5236 27.1208 16.2456 25.5354 8.60501C25.3573 7.74714 24.2553 -0.404417 20.2573 1.18817C18.4055 1.92559 18.0732 4.84703 18.0576 6.26209C17.9843 12.9668 21.5411 22.4556 24.649 27.8383C25.6117 29.5057 29.127 33.1369 30.3967 34.5601C30.9305 35.1587 32.0623 36.6564 31.2735 36.8009C29.4046 37.1424 27.0001 33.7505 26.1104 32.9041C24.2252 31.1109 23.045 30.5645 21.8502 28.1888C18.9957 22.5126 18.5043 16.2051 15.7838 10.498C15.6072 10.1267 13.4478 6.42279 10.8156 6.89348C8.97611 7.22239 7.66979 8.65037 7.50338 12.9334C7.41026 15.3343 7.93952 18.8424 8.60245 21.0012C10.3338 26.6401 14.2104 31.7765 18.9987 35.2422C22.3512 37.6683 25.779 39.825 29.577 41.3726C29.9951 41.5432 30.7878 42.2253 30.3967 42.4509C28.3037 43.6593 24.7986 42.3305 22.9342 41.6738C15.3038 38.9876 10.9697 34.269 7.82718 26.614C6.03034 22.2366 6.89211 22.0047 4.97062 17.6093C4.69908 16.9888 3.62734 16.7013 3.06835 16.8338C0.4641 17.4513 0.695388 22.0095 0.707403 23.6613C0.758467 30.6104 3.26149 35.3663 7.80255 40.3852C8.7235 41.4029 12.1775 44.133 14.3014 44.8551Z" fill="#FF8F85"/>
</svg>
