<svg width="19" height="19" viewBox="0 0 19 19" fill="none" xmlns="http://www.w3.org/2000/svg">
<path d="M1.3674 0.445867C1.24529 0.323757 1.07968 0.255156 0.906987 0.255156C0.734297 0.255156 0.56868 0.323757 0.44657 0.445867C0.32446 0.567977 0.255859 0.733594 0.255859 0.906284C0.255859 0.991791 0.272701 1.07646 0.305424 1.15546C0.338146 1.23446 0.386108 1.30624 0.44657 1.3667L8.5799 9.50003L0.44657 17.6334C0.386108 17.6938 0.338146 17.7656 0.305424 17.8446C0.272701 17.9236 0.255859 18.0083 0.255859 18.0938C0.255859 18.1793 0.272701 18.264 0.305424 18.343C0.338146 18.422 0.386108 18.4937 0.44657 18.5542C0.507033 18.6147 0.578813 18.6626 0.657811 18.6953C0.73681 18.7281 0.82148 18.7449 0.906987 18.7449C0.992494 18.7449 1.07716 18.7281 1.15616 18.6953C1.23516 18.6626 1.30694 18.6147 1.3674 18.5542L9.50074 10.4209L17.6335 18.5537C17.694 18.6141 17.7658 18.6621 17.8448 18.6948C17.9238 18.7276 18.0085 18.7444 18.094 18.7444C18.1795 18.7444 18.2641 18.7276 18.3431 18.6948C18.4221 18.6621 18.4939 18.6141 18.5544 18.5537C18.6148 18.4932 18.6628 18.4214 18.6955 18.3424C18.7283 18.2634 18.7451 18.1788 18.7451 18.0933C18.7451 18.0078 18.7283 17.9231 18.6955 17.8441C18.6628 17.7651 18.6148 17.6933 18.5544 17.6328L10.4216 9.50003L18.5544 1.3667C18.6178 1.30695 18.6685 1.23508 18.7036 1.15536C18.7387 1.07563 18.7575 0.989675 18.7588 0.902574C18.76 0.815473 18.7438 0.729001 18.7111 0.648278C18.6783 0.567556 18.6297 0.494225 18.5681 0.432629C18.5065 0.371033 18.4332 0.322425 18.3525 0.289683C18.2718 0.256941 18.1853 0.240731 18.0982 0.242014C18.0111 0.243297 17.9251 0.262046 17.8454 0.297152C17.7657 0.332257 17.6938 0.383005 17.6341 0.446388L9.50074 8.5792L1.3674 0.445867Z" fill="#1E3A2B"/>
</svg>
