<svg width="25" height="16" viewBox="0 0 25 16" fill="none" xmlns="http://www.w3.org/2000/svg">
<path d="M7.27187 0.1875C7.99219 0.1875 8.65781 0.242188 9.26875 0.40625C9.87812 0.515625 10.3797 0.74375 10.825 1.01719C11.2703 1.29062 11.6016 1.68281 11.8266 2.18437C12.0453 2.68437 12.1641 3.29531 12.1641 3.96094C12.1641 4.73594 11.9984 5.40156 11.6078 5.90156C11.2719 6.40156 10.7234 6.84844 10.05 7.17812C10.9969 7.45312 11.7172 7.95312 12.1562 8.61875C12.5953 9.28438 12.8766 10.1141 12.8766 11.0609C12.8766 11.8359 12.7125 12.5016 12.4312 13.0578C12.1517 13.6184 11.7305 14.0962 11.2094 14.4437C10.7094 14.7797 10.0984 15.0531 9.43281 15.2188C8.78087 15.3914 8.11028 15.4837 7.43594 15.4937L0 15.5047V0.1875H7.27187ZM6.82656 6.40313C7.43594 6.40313 7.93594 6.23906 8.32187 5.95781C8.70625 5.67656 8.87656 5.18125 8.87656 4.57188C8.87656 4.23438 8.82187 3.90625 8.7125 3.68594C8.59312 3.46335 8.42155 3.27301 8.2125 3.13125C7.98616 3.00695 7.74378 2.91442 7.49219 2.85625C7.21719 2.80156 6.93594 2.80156 6.60625 2.80156H3.39062V6.41094C3.39062 6.40312 6.82656 6.40313 6.82656 6.40313ZM6.99062 12.9547C7.32656 12.9547 7.65625 12.9 7.9375 12.8453C8.2125 12.7906 8.49375 12.6797 8.7125 12.5078C8.93125 12.3359 9.10312 12.1719 9.26875 11.8984C9.37812 11.6234 9.4875 11.2875 9.4875 10.8969C9.4875 10.1219 9.26875 9.56563 8.82187 9.175C8.37656 8.83906 7.76562 8.675 7.04531 8.675H3.39062V12.9469H6.99219L6.99062 12.9547ZM17.7062 12.9C18.1521 13.3448 18.8177 13.5667 19.7031 13.5656C20.3125 13.5656 20.8687 13.4 21.3156 13.1187C21.7594 12.7854 22.0354 12.4521 22.1437 12.1187H24.8625C24.4156 13.4484 23.75 14.3953 22.8656 15.0063C21.9812 15.5609 20.9234 15.8906 19.6469 15.8906C18.8305 15.8956 18.0206 15.7444 17.2609 15.4453C16.5761 15.1926 15.9654 14.7726 15.4844 14.2234C14.97 13.7127 14.5881 13.0841 14.3719 12.3922C14.0984 11.6719 13.9812 10.8969 13.9812 10.0047C13.9812 9.175 14.0906 8.39219 14.3719 7.67188C14.6531 6.95312 15.0375 6.34063 15.5391 5.78594C16.0391 5.28594 16.65 4.83906 17.3156 4.56406C18.0576 4.26789 18.8495 4.11672 19.6484 4.11875C20.5953 4.11875 21.425 4.28281 22.1453 4.67344C22.8641 5.06406 23.4219 5.50469 23.8672 6.17031C24.3125 6.77969 24.6422 7.5 24.8687 8.27656C24.9781 9.05156 25.0328 9.83281 24.9781 10.7188H16.9312C16.9312 11.625 17.2594 12.4531 17.7062 12.9ZM21.2062 7.06875C20.8156 6.67812 20.2031 6.45781 19.4828 6.45781C18.9828 6.45781 18.5984 6.56719 18.2625 6.73281C17.9266 6.89844 17.7062 7.12344 17.4875 7.34219C17.2835 7.55681 17.1476 7.82701 17.0969 8.11875C17.0406 8.39219 16.9875 8.61875 16.9875 8.8375H21.9812C21.8719 8.01563 21.5922 7.45937 21.2062 7.06875ZM16.3203 1.24375H22.5359V2.73906H16.3203V1.24375Z" fill="#1A5B40"/>
</svg>
