<svg width="21" height="22" viewBox="0 0 21 22" fill="none" xmlns="http://www.w3.org/2000/svg">
<path d="M11.5701 0.583252C12.742 0.586377 13.3368 0.592627 13.8503 0.60721L14.0524 0.614502C14.2857 0.622835 14.516 0.633252 14.7941 0.645752C15.9024 0.697835 16.6587 0.872835 17.3222 1.13013C18.0097 1.39471 18.5889 1.75304 19.168 2.33117C19.6979 2.85172 20.1078 3.48166 20.3691 4.177C20.6264 4.84054 20.8014 5.59679 20.8535 6.70617C20.866 6.98325 20.8764 7.21346 20.8847 7.44783L20.891 7.64992C20.9066 8.16242 20.9128 8.75721 20.9149 9.92908L20.916 10.7062V12.0708C20.9185 12.8305 20.9105 13.5903 20.892 14.3499L20.8857 14.552C20.8774 14.7864 20.867 15.0166 20.8545 15.2937C20.8024 16.403 20.6253 17.1583 20.3691 17.8228C20.1078 18.5182 19.6979 19.1481 19.168 19.6687C18.6475 20.1986 18.0175 20.6084 17.3222 20.8697C16.6587 21.127 15.9024 21.302 14.7941 21.3541L14.0524 21.3853L13.8503 21.3916C13.3368 21.4062 12.742 21.4135 11.5701 21.4155L10.793 21.4166H9.4295C8.66935 21.4193 7.90921 21.4113 7.14929 21.3926L6.94721 21.3864C6.69993 21.377 6.4527 21.3662 6.20554 21.3541C5.09721 21.302 4.34096 21.127 3.67637 20.8697C2.98141 20.6083 2.35184 20.1984 1.83158 19.6687C1.30132 19.1482 0.891071 18.5183 0.629499 17.8228C0.372207 17.1593 0.197207 16.403 0.145124 15.2937L0.113874 14.552L0.108666 14.3499C0.0894635 13.5904 0.080782 12.8306 0.0826237 12.0708V9.92908C0.0797405 9.16929 0.0873802 8.4095 0.10554 7.64992L0.112832 7.44783C0.121165 7.21346 0.131582 6.98325 0.144082 6.70617C0.196165 5.59679 0.371165 4.84159 0.628457 4.177C0.890639 3.48138 1.30161 2.85141 1.83262 2.33117C2.35258 1.80153 2.98178 1.39166 3.67637 1.13013C4.34096 0.872835 5.09617 0.697835 6.20554 0.645752C6.48262 0.633252 6.71387 0.622835 6.94721 0.614502L7.14929 0.608252C7.90887 0.589744 8.66866 0.581757 9.42846 0.584294L11.5701 0.583252ZM10.4993 5.79158C9.11796 5.79158 7.7932 6.34032 6.81644 7.31707C5.83969 8.29382 5.29096 9.61858 5.29096 10.9999C5.29096 12.3813 5.83969 13.706 6.81644 14.6828C7.7932 15.6595 9.11796 16.2083 10.4993 16.2083C11.8806 16.2083 13.2054 15.6595 14.1821 14.6828C15.1589 13.706 15.7076 12.3813 15.7076 10.9999C15.7076 9.61858 15.1589 8.29382 14.1821 7.31707C13.2054 6.34032 11.8806 5.79158 10.4993 5.79158ZM10.4993 7.87492C10.9097 7.87485 11.316 7.95561 11.6952 8.1126C12.0744 8.26958 12.4189 8.49971 12.7092 8.78984C12.9994 9.07998 13.2296 9.42444 13.3867 9.80355C13.5438 10.1827 13.6247 10.589 13.6248 10.9994C13.6249 11.4098 13.5441 11.8162 13.3871 12.1953C13.2302 12.5745 13 12.919 12.7099 13.2093C12.4198 13.4995 12.0753 13.7297 11.6962 13.8868C11.3171 14.044 10.9107 14.1248 10.5003 14.1249C9.67153 14.1249 8.87668 13.7957 8.29062 13.2096C7.70457 12.6236 7.37533 11.8287 7.37533 10.9999C7.37533 10.1711 7.70457 9.37626 8.29062 8.79021C8.87668 8.20416 9.67153 7.87492 10.5003 7.87492M15.9691 4.22909C15.6237 4.22909 15.2926 4.36627 15.0484 4.61046C14.8042 4.85464 14.667 5.18583 14.667 5.53117C14.667 5.8765 14.8042 6.20769 15.0484 6.45188C15.2926 6.69607 15.6237 6.83325 15.9691 6.83325C16.3144 6.83325 16.6456 6.69607 16.8898 6.45188C17.134 6.20769 17.2712 5.8765 17.2712 5.53117C17.2712 5.18583 17.134 4.85464 16.8898 4.61046C16.6456 4.36627 16.3144 4.22909 15.9691 4.22909Z" fill="#1A5B40"/>
</svg>
