<svg width="20" height="20" viewBox="0 0 20 20" fill="none" xmlns="http://www.w3.org/2000/svg">
<path d="M4.22917 2.7084C4.22889 3.26093 4.00913 3.79073 3.61824 4.18123C3.22734 4.57174 2.69733 4.79097 2.14479 4.79069C1.59226 4.79041 1.06246 4.57066 0.671958 4.17976C0.281452 3.78886 0.062224 3.25885 0.0625003 2.70632C0.0627765 2.15378 0.282535 1.62399 0.673431 1.23348C1.06433 0.842976 1.59434 0.623747 2.14688 0.624024C2.69941 0.6243 3.2292 0.844058 3.61971 1.23495C4.01021 1.62585 4.22944 2.15586 4.22917 2.7084ZM4.29167 6.3334H0.125V19.3751H4.29167V6.3334ZM10.875 6.3334H6.72917V19.3751H10.8333V12.5313C10.8333 8.71882 15.8021 8.36465 15.8021 12.5313V19.3751H19.9167V11.1146C19.9167 4.68756 12.5625 4.92715 10.8333 8.0834L10.875 6.3334Z" fill="#1A5B40"/>
</svg>
