<svg width="72" height="42" viewBox="0 0 72 42" fill="none" xmlns="http://www.w3.org/2000/svg">
<path d="M65.154 18.03C64.5567 18.0463 63.9479 18.0405 63.3588 18.0115C63.2973 18.0092 63.2359 18.0068 63.1744 18.0034C56.0736 17.8097 48.9253 17.5685 41.7758 17.5685C38.0567 17.616 34.2888 17.6647 30.521 17.8584C25.256 18.1483 19.9423 18.6308 14.8223 19.8867C14.9197 17.7134 14.9673 15.4915 14.871 13.3171C14.871 12.0136 14.8223 7.7146 13.905 6.69987C13.7113 6.45866 13.3739 6.3624 13.0352 6.3624C12.649 6.40995 12.2142 6.45866 12.0217 6.79613C11.683 7.42468 11.5868 8.14949 11.683 8.82558C11.7317 9.55039 11.683 10.2265 11.683 10.9501C11.683 14.0906 11.7793 17.2299 11.683 20.3703C11.6343 20.7078 11.7317 21.1426 11.3931 21.3363C7.52902 24.8142 2.89142 29.8368 1.29801 34.9093C0.863127 36.2128 0.911834 37.5662 1.39426 38.8221C1.87785 39.9331 2.89142 40.7054 4.09982 40.9467C5.45202 41.1403 6.85292 40.8017 8.01145 39.9806C12.649 36.5514 14.1949 27.7123 14.6298 22.1087C24.0488 19.4043 36.3172 19.2106 46.1235 19.2106C50.5187 19.2106 54.8664 19.3069 59.2616 19.3556C60.7715 19.3556 62.2884 19.3822 63.8076 19.4112C64.8107 19.4321 65.815 19.4541 66.817 19.4715C67.8433 19.4889 68.8673 19.5005 69.8878 19.5005C70.3714 19.5481 70.9026 19.4518 71.3374 19.2593C71.7236 19.0656 71.7236 18.3408 71.2412 18.2446C70.0885 18.3002 68.952 18.2423 67.812 18.1843C67.4687 18.1657 67.1243 18.1483 66.7799 18.1344C66.3044 18.1135 65.8278 18.0996 65.3476 18.0996L65.154 18.03ZM10.4758 30.8516C10.0885 32.7836 9.41236 34.6681 8.49504 36.4065C7.9152 37.3725 7.14284 38.1936 6.17682 38.7734C5.50072 39.2083 4.72721 39.3045 3.95486 39.112C3.37501 38.8697 2.94013 38.3385 2.84388 37.7111C2.69891 36.7927 2.79517 35.8753 3.1338 35.0056C4.58225 30.8029 8.35008 26.4563 11.4894 23.4609C11.3444 25.9727 11.0069 28.4359 10.4758 30.8516ZM12.6978 1C11.828 1 11.1519 1.72481 11.1519 2.54587C11.1519 3.41563 11.828 4.09173 12.6978 4.09173C13.5188 4.09173 14.1949 3.41563 14.1949 2.54587C14.1949 1.72481 13.5188 1 12.6978 1Z" fill="#F7F3EE"/>
<path d="M29.9096 11.6946C29.8795 11.6331 29.8493 11.5427 29.7878 11.5125C29.5756 11.3293 29.2706 11.2991 29.0283 11.3908C28.0854 11.7247 27.1124 11.9984 26.1395 12.242C26.1696 11.0556 26.1998 9.77879 25.4089 8.56228C25.0134 7.9546 24.2538 7.46753 23.5244 7.46753C22.977 7.46753 22.5201 7.80268 22.338 8.31874C22.0945 9.23142 22.2162 10.2345 22.7335 11.0556C23.2194 11.8465 23.9198 12.4855 24.7397 12.8496C24.5576 13.5803 24.2237 14.2795 23.7366 14.8269C23.4328 15.1911 22.7636 15.6781 22.2777 15.6781C21.9124 15.6781 21.6086 15.3743 21.4566 15.1609C20.878 14.2181 20.6043 13.1233 20.6356 12.0286C20.6959 10.63 21.031 9.23142 22.004 8.16682C22.1861 7.98475 21.9727 7.74122 21.8521 7.55915C21.699 7.49768 21.5784 7.49768 21.4566 7.49768C20.9696 7.49768 20.6043 7.80268 20.3004 8.04506C19.2057 9.04935 18.5365 10.4178 18.4159 11.8767C18.2629 13.215 18.598 14.5532 19.3889 15.648C20.0267 16.5896 21.183 17.3504 22.338 17.3504C24.5576 17.3504 25.6524 15.0391 26.0479 13.1535C27.3247 13.0932 28.3591 12.6073 29.4225 12.2118C29.6661 12.1202 30.0314 11.9984 29.9096 11.6946ZM24.8928 11.9683C24.0404 11.4511 23.4629 10.5384 23.3724 9.53526C23.3724 9.10965 23.4026 8.62374 23.7981 8.35005C24.2538 8.59243 24.5878 9.04935 24.6794 9.56541C24.923 10.3563 24.9833 11.1774 24.8928 11.9683Z" fill="#F7F3EE"/>
<path d="M40.0349 13.033C39.7948 13.0724 39.6858 13.2185 39.5977 13.3739C39.5513 13.4539 39.5095 13.5374 39.4574 13.6105C38.8184 14.7052 37.6332 16.1954 36.325 16.4993C36.0513 16.3775 35.991 16.1038 35.9307 15.8904C35.6872 14.8873 35.8693 13.854 35.9911 12.8497C36.0514 12.4241 35.9307 11.9985 35.5956 11.6947C35.2616 11.4511 34.7444 11.3908 34.2886 11.2389C33.1939 10.9038 32.0991 10.4179 31.3685 9.68726C31.6735 9.04943 32.1293 8.41044 32.1293 7.71115C32.1594 7.28554 31.9159 6.89009 31.5204 6.70802C31.3998 6.67671 31.2781 6.64655 31.1262 6.64655C30.3955 6.64655 29.818 7.3157 29.7264 8.01499C29.636 8.71428 29.8482 9.41357 30.3352 9.90064C31.2479 10.8736 33.1023 11.6645 34.3188 12.1504C34.197 12.7894 34.1054 13.4586 34.1355 14.1277C34.197 15.4648 34.4405 17.1371 36.0514 17.3505C36.5686 17.3505 37.0858 17.2287 37.5114 16.9249C38.4542 16.3416 39.215 15.4764 39.8296 14.5243C40.0476 14.1869 40.2471 13.8389 40.4303 13.4887C40.5823 13.2753 40.3399 12.9715 40.0349 13.033ZM30.8212 8.8059C30.6692 8.31883 30.6089 7.71115 31.1262 7.3157C31.3384 7.83292 31.0044 8.31883 30.8212 8.8059Z" fill="#F7F3EE"/>
<path d="M57.1844 14.4014C57.1241 14.3098 57.0325 14.2484 56.9107 14.2484C56.8202 14.2484 56.7286 14.3098 56.6672 14.4014C56.6034 14.4896 56.5396 14.5754 56.4723 14.66C55.9644 15.306 55.3602 15.8522 54.6609 16.2558C54.4475 16.4077 54.2051 16.4692 53.9616 16.4692C53.8097 16.4692 53.6578 16.4379 53.5059 16.4077C53.2009 16.2558 53.1707 15.8905 53.1104 15.5866C53.0188 14.6438 52.9886 13.6708 52.563 12.8498C52.2893 12.2722 51.742 11.9069 51.103 11.8466C50.4037 11.8768 49.7647 12.1806 49.2788 12.6979C48.7917 13.1235 48.3661 13.6407 47.7886 13.9144C47.7283 13.367 47.697 12.8196 47.7584 12.2722C47.7283 10.4782 47.3027 8.04518 45.2953 7.49781C44.6876 7.40735 44.1089 7.65089 43.7134 8.10665C43.2577 8.77579 42.8935 9.50523 42.7103 10.2961C42.3149 11.573 41.9809 12.9414 41.19 14.0361C41.19 13.1849 41.2201 12.3337 41.1297 11.4813C41.1297 11.0557 41.0079 10.6301 40.7643 10.266C40.6426 10.1442 40.4907 10.0828 40.3387 10.0526C40.1567 10.0526 40.0048 10.1129 39.883 10.2347C39.6395 10.5385 39.4875 10.9038 39.4875 11.2993C39.4678 11.987 39.5003 12.6862 39.5977 13.3739C39.6452 13.7207 39.7102 14.064 39.7914 14.4014C39.803 14.442 39.8157 14.4826 39.8296 14.5243C39.9839 15.0172 40.2367 15.5866 40.8258 15.5866C41.5553 15.5866 42.2244 14.4014 42.4981 13.8541C43.1359 12.5761 43.3493 11.1172 43.957 9.83922C44.1402 9.50523 44.3524 9.07963 44.7177 8.95786C45.0819 9.01816 45.2651 9.35331 45.4472 9.65715C46.056 10.8737 46.1766 12.2421 46.5118 13.5491C46.6022 14.006 46.8156 14.4014 47.1809 14.7053C47.3328 14.7957 47.5149 14.8572 47.697 14.8572C47.8489 14.8572 48.002 14.827 48.1539 14.7656C48.9436 14.4316 49.4609 13.6708 50.2518 13.3067C50.4953 13.2151 50.8293 13.1235 50.9812 13.367C51.1946 13.701 51.3465 14.0361 51.4381 14.4014C51.6202 15.161 51.8939 15.8905 52.2893 16.5596C52.5932 17.0165 53.1104 17.3204 53.6578 17.3505C55.0482 17.3505 56.1905 16.2465 56.9258 15.1692C56.9629 15.1158 56.9977 15.0625 57.0325 15.0091C57.1844 14.8572 57.2458 14.6137 57.1844 14.4014Z" fill="#F7F3EE"/>
<path d="M66.7796 18.3663C66.5558 18.6783 66.3111 18.7444 66.0328 19.0227C65.8206 19.1746 65.6072 19.1143 65.3335 19.0842C65.1816 18.6586 65.09 18.5368 65.1514 18.0799C65.1526 18.0636 65.1528 18.0463 65.154 18.03C65.2479 15.7663 65.671 13.5026 65.9424 11.2389C66.0328 10.3865 66.1546 9.50513 65.8507 8.68407C65.729 8.47068 65.5469 8.35008 65.3335 8.31877C65.09 8.28861 64.8778 8.35008 64.7258 8.502C64.3002 9.04937 64.2086 9.71851 63.8746 10.296C63.0536 11.7862 61.989 13.2451 60.4988 14.1276C60.1033 14.37 59.6174 14.4616 59.1303 14.37C58.6131 14.1578 58.249 13.6406 58.249 13.0932C58.1875 11.8767 58.7047 10.6915 59.6777 9.96088C59.9816 9.71851 60.3469 9.56543 60.7423 9.59674C61.1064 9.65705 61.4717 9.6872 61.8371 9.6872C61.989 9.65705 62.0794 9.50513 62.1107 9.35321C62.1107 9.20129 62.0191 9.04937 61.8672 8.98791C61.2282 8.68407 60.5289 8.59245 59.8598 8.68407C58.1272 9.13982 56.3935 10.8434 56.0896 12.6374C55.9308 13.3518 56.0711 14.0663 56.4723 14.66C56.5303 14.7493 56.5964 14.8351 56.6672 14.9174C56.7483 15.0079 56.8353 15.0915 56.9258 15.1692C57.4778 15.6435 58.1864 15.8857 58.9181 15.8602C60.8641 15.6782 62.4146 14.1276 63.4792 12.576C63.3574 13.2753 63.2959 13.9746 63.2356 14.6739C63.2101 15.7674 63.1616 16.9063 63.3588 18.0115C63.3913 18.1982 63.4305 18.3837 63.4792 18.5669C63.5499 18.8673 63.6612 18.7989 63.8074 19.0633C64.8105 19.0842 65.8148 19.1062 66.8168 19.1236C67.1728 18.7502 67.5068 18.8835 67.8118 18.4162C67.4685 18.3976 67.1241 18.3802 66.7796 18.3663Z" fill="#F7F3EE"/>
<path d="M65.154 18.03C64.5567 18.0463 63.9479 18.0405 63.3588 18.0115M65.154 18.03L65.3476 18.0996C65.8278 18.0996 66.3044 18.1135 66.7799 18.1344C67.1243 18.1483 67.4687 18.1657 67.812 18.1843C68.952 18.2423 70.0885 18.3002 71.2412 18.2446C71.7236 18.3408 71.7236 19.0656 71.3374 19.2593C70.9026 19.4518 70.3714 19.5481 69.8878 19.5005C68.8673 19.5005 67.8433 19.4889 66.817 19.4715C65.815 19.4541 64.8107 19.4321 63.8076 19.4112C62.2884 19.3822 60.7715 19.3556 59.2616 19.3556C54.8664 19.3069 50.5187 19.2106 46.1235 19.2106C36.3171 19.2106 24.0488 19.4043 14.6298 22.1087C14.1949 27.7123 12.649 36.5514 8.01145 39.9806C6.85292 40.8017 5.45202 41.1403 4.09982 40.9467C2.89142 40.7054 1.87785 39.9331 1.39426 38.8221C0.911834 37.5662 0.863127 36.2128 1.29801 34.9093C2.89142 29.8368 7.52902 24.8142 11.3931 21.3363C11.7317 21.1426 11.6343 20.7078 11.683 20.3703C11.7793 17.2299 11.683 14.0906 11.683 10.9501C11.683 10.2265 11.7317 9.55039 11.683 8.82558C11.5868 8.14949 11.683 7.42468 12.0217 6.79613C12.2142 6.45866 12.649 6.40995 13.0352 6.3624C13.3739 6.3624 13.7113 6.45866 13.905 6.69987C14.8223 7.7146 14.871 12.0136 14.871 13.3171C14.9673 15.4915 14.9197 17.7134 14.8223 19.8867C19.9423 18.6308 25.256 18.1483 30.521 17.8584C34.2888 17.6647 38.0567 17.616 41.7758 17.5685C48.9253 17.5685 56.0736 17.8097 63.1744 18.0034C63.2359 18.0068 63.2973 18.0092 63.3588 18.0115M65.154 18.03C65.1528 18.0463 65.1526 18.0636 65.1514 18.0799C65.09 18.5368 65.1816 18.6586 65.3335 19.0842C65.6072 19.1143 65.8206 19.1746 66.0328 19.0227C66.3111 18.7444 66.5558 18.6783 66.7796 18.3663C67.1241 18.3802 67.4685 18.3976 67.8118 18.4162C67.5068 18.8835 67.1728 18.7502 66.8168 19.1236C65.8148 19.1062 64.8105 19.0842 63.8074 19.0633C63.6612 18.7989 63.5499 18.8673 63.4792 18.5669C63.4305 18.3837 63.3913 18.1982 63.3588 18.0115M65.154 18.03C65.2479 15.7663 65.671 13.5026 65.9424 11.2389C66.0328 10.3865 66.1546 9.50513 65.8507 8.68407C65.729 8.47068 65.5469 8.35008 65.3335 8.31877C65.09 8.28861 64.8778 8.35008 64.7258 8.502C64.3002 9.04937 64.2086 9.71851 63.8746 10.296C63.0536 11.7862 61.989 13.2451 60.4988 14.1276C60.1033 14.37 59.6174 14.4616 59.1303 14.37C58.6131 14.1578 58.249 13.6406 58.249 13.0932C58.1875 11.8767 58.7047 10.6915 59.6777 9.96088C59.9816 9.71851 60.3469 9.56543 60.7423 9.59674C61.1064 9.65705 61.4717 9.6872 61.8371 9.6872C61.989 9.65705 62.0794 9.50513 62.1107 9.35321C62.1107 9.20129 62.0191 9.04937 61.8672 8.98791C61.2282 8.68407 60.5289 8.59245 59.8598 8.68407C58.1272 9.13983 56.3935 10.8434 56.0896 12.6374C55.9308 13.3518 56.0711 14.0663 56.4723 14.66M63.3588 18.0115C63.1616 16.9063 63.2101 15.7674 63.2356 14.6739C63.2959 13.9746 63.3574 13.2753 63.4792 12.576C62.4146 14.1276 60.8641 15.6782 58.9181 15.8602C58.1864 15.8857 57.4778 15.6435 56.9258 15.1692M39.5977 13.3739C39.6858 13.2185 39.7948 13.0724 40.0349 13.033C40.3399 12.9715 40.5823 13.2753 40.4303 13.4887C40.2471 13.8389 40.0476 14.1869 39.8296 14.5243M39.5977 13.3739C39.5513 13.4539 39.5095 13.5374 39.4574 13.6105C38.8184 14.7052 37.6332 16.1954 36.325 16.4993C36.0513 16.3775 35.991 16.1038 35.9307 15.8904C35.6872 14.8873 35.8693 13.854 35.9911 12.8497C36.0514 12.4241 35.9307 11.9985 35.5956 11.6947C35.2616 11.4511 34.7444 11.3908 34.2886 11.2389C33.1939 10.9038 32.0991 10.4179 31.3685 9.68726C31.6735 9.04943 32.1293 8.41044 32.1293 7.71115C32.1594 7.28554 31.9159 6.89009 31.5204 6.70802C31.3998 6.67671 31.2781 6.64655 31.1262 6.64655C30.3955 6.64655 29.818 7.3157 29.7264 8.01499C29.636 8.71428 29.8482 9.41357 30.3352 9.90064C31.2479 10.8736 33.1023 11.6645 34.3188 12.1504C34.197 12.7894 34.1054 13.4586 34.1355 14.1277C34.197 15.4648 34.4405 17.1371 36.0514 17.3505C36.5686 17.3505 37.0858 17.2287 37.5114 16.9249C38.4542 16.3416 39.215 15.4764 39.8296 14.5243M39.5977 13.3739C39.5003 12.6862 39.4678 11.987 39.4875 11.2993C39.4875 10.9038 39.6394 10.5385 39.883 10.2347C40.0048 10.1129 40.1567 10.0526 40.3387 10.0526C40.4907 10.0828 40.6426 10.1442 40.7643 10.266C41.0079 10.6301 41.1297 11.0557 41.1297 11.4813C41.2201 12.3337 41.19 13.1849 41.19 14.0361C41.9809 12.9414 42.3149 11.573 42.7103 10.2961C42.8935 9.50523 43.2577 8.77579 43.7134 8.10665C44.1089 7.65089 44.6876 7.40735 45.2953 7.49781C47.3027 8.04518 47.7283 10.4782 47.7584 12.2722C47.697 12.8196 47.7283 13.367 47.7886 13.9144C48.3661 13.6407 48.7917 13.1235 49.2788 12.6979C49.7647 12.1806 50.4037 11.8768 51.103 11.8466C51.742 11.9069 52.2893 12.2722 52.563 12.8498C52.9886 13.6708 53.0188 14.6438 53.1104 15.5866C53.1707 15.8905 53.2009 16.2558 53.5059 16.4077C53.6578 16.4379 53.8097 16.4692 53.9616 16.4692C54.2051 16.4692 54.4475 16.4077 54.6609 16.2558C55.3602 15.8522 55.9644 15.306 56.4723 14.66M39.5977 13.3739C39.6452 13.7207 39.7102 14.064 39.7914 14.4014C39.803 14.442 39.8157 14.4826 39.8296 14.5243M39.8296 14.5243C39.9839 15.0172 40.2367 15.5866 40.8258 15.5866C41.5553 15.5866 42.2244 14.4014 42.4981 13.8541C43.1359 12.5761 43.3493 11.1172 43.957 9.83922C44.1402 9.50523 44.3524 9.07962 44.7177 8.95786C45.0819 9.01816 45.2651 9.35331 45.4472 9.65715C46.056 10.8737 46.1766 12.2421 46.5118 13.5491C46.6022 14.006 46.8156 14.4014 47.1809 14.7053C47.3328 14.7957 47.5149 14.8572 47.697 14.8572C47.8489 14.8572 48.002 14.827 48.1539 14.7656C48.9436 14.4316 49.4609 13.6708 50.2518 13.3067C50.4953 13.2151 50.8293 13.1235 50.9812 13.367C51.1946 13.701 51.3465 14.0361 51.4381 14.4014C51.6202 15.161 51.8939 15.8905 52.2893 16.5596C52.5932 17.0165 53.1104 17.3204 53.6578 17.3505C55.0482 17.3505 56.1905 16.2465 56.9258 15.1692M56.4723 14.66C56.5396 14.5754 56.6034 14.4896 56.6672 14.4014C56.7286 14.3098 56.8202 14.2484 56.9107 14.2484C57.0325 14.2484 57.1241 14.3098 57.1844 14.4014C57.2459 14.6137 57.1844 14.8572 57.0325 15.0091C56.9977 15.0625 56.9629 15.1158 56.9258 15.1692M56.4723 14.66C56.5303 14.7493 56.5964 14.8351 56.6672 14.9174C56.7483 15.0079 56.8353 15.0915 56.9258 15.1692M10.4758 30.8516C10.0885 32.7836 9.41236 34.6681 8.49504 36.4065C7.9152 37.3725 7.14284 38.1936 6.17682 38.7734C5.50072 39.2083 4.72721 39.3045 3.95486 39.112C3.37501 38.8697 2.94013 38.3385 2.84388 37.7111C2.69891 36.7927 2.79517 35.8753 3.1338 35.0056C4.58225 30.8029 8.35008 26.4563 11.4894 23.4609C11.3444 25.9728 11.0069 28.4359 10.4758 30.8516ZM12.6978 1C11.828 1 11.1519 1.72481 11.1519 2.54587C11.1519 3.41563 11.828 4.09173 12.6978 4.09173C13.5188 4.09173 14.1949 3.41563 14.1949 2.54587C14.1949 1.72481 13.5188 1 12.6978 1ZM29.9096 11.6946C29.8795 11.6331 29.8493 11.5427 29.7878 11.5125C29.5756 11.3293 29.2706 11.2991 29.0283 11.3908C28.0854 11.7247 27.1124 11.9984 26.1395 12.242C26.1696 11.0556 26.1998 9.77879 25.4089 8.56228C25.0134 7.9546 24.2538 7.46753 23.5244 7.46753C22.977 7.46753 22.5201 7.80268 22.338 8.31874C22.0945 9.23142 22.2162 10.2345 22.7335 11.0556C23.2194 11.8465 23.9198 12.4855 24.7397 12.8496C24.5577 13.5803 24.2237 14.2795 23.7366 14.8269C23.4328 15.1911 22.7636 15.6781 22.2777 15.6781C21.9124 15.6781 21.6086 15.3743 21.4566 15.1609C20.878 14.2181 20.6043 13.1233 20.6356 12.0286C20.6959 10.63 21.031 9.23142 22.004 8.16682C22.1861 7.98475 21.9727 7.74122 21.8521 7.55915C21.699 7.49768 21.5784 7.49768 21.4566 7.49768C20.9696 7.49768 20.6043 7.80268 20.3004 8.04506C19.2057 9.04935 18.5365 10.4178 18.4159 11.8767C18.2629 13.215 18.598 14.5532 19.3889 15.648C20.0267 16.5896 21.183 17.3504 22.338 17.3504C24.5576 17.3504 25.6524 15.0391 26.0479 13.1535C27.3247 13.0932 28.3591 12.6073 29.4225 12.2118C29.6661 12.1202 30.0314 11.9984 29.9096 11.6946ZM24.8928 11.9683C24.0404 11.4511 23.4629 10.5384 23.3724 9.53526C23.3724 9.10965 23.4026 8.62374 23.7981 8.35005C24.2538 8.59243 24.5878 9.04935 24.6794 9.56541C24.923 10.3563 24.9833 11.1774 24.8928 11.9683ZM30.8212 8.8059C30.6692 8.31883 30.6089 7.71115 31.1262 7.3157C31.3384 7.83292 31.0044 8.31883 30.8212 8.8059Z" stroke="#F7F3EE" stroke-width="0.45983" stroke-miterlimit="10"/>
</svg>
