<svg width="76" height="49" viewBox="0 0 76 49" fill="none" xmlns="http://www.w3.org/2000/svg">
<path d="M67.154 25.03C66.5567 25.0463 65.9479 25.0405 65.3588 25.0115C65.2973 25.0092 65.2358 25.0068 65.1744 25.0034C58.0736 24.8097 50.9253 24.5685 43.7758 24.5685C40.0567 24.616 36.2888 24.6647 32.521 24.8584C27.256 25.1483 21.9423 25.6308 16.8223 26.8867C16.9197 24.7134 16.9673 22.4915 16.871 20.3171C16.871 19.0136 16.8223 14.7146 15.905 13.6999C15.7113 13.4587 15.3739 13.3624 15.0352 13.3624C14.649 13.41 14.2142 13.4587 14.0217 13.7961C13.683 14.4247 13.5868 15.1495 13.683 15.8256C13.7317 16.5504 13.683 17.2265 13.683 17.9501C13.683 21.0906 13.7793 24.2298 13.683 27.3703C13.6343 27.7078 13.7317 28.1426 13.3931 28.3363C9.52902 31.8142 4.89142 36.8368 3.29801 41.9093C2.86313 43.2128 2.91183 44.5662 3.39426 45.8221C3.87785 46.9331 4.89142 47.7054 6.09982 47.9467C7.45202 48.1403 8.85292 47.8017 10.0115 46.9806C14.649 43.5514 16.1949 34.7123 16.6298 29.1087C26.0488 26.4043 38.3171 26.2106 48.1235 26.2106C52.5187 26.2106 56.8664 26.3069 61.2616 26.3556C62.7715 26.3556 64.2884 26.3822 65.8076 26.4112C66.8107 26.4321 67.815 26.4541 68.817 26.4715C69.8433 26.4889 70.8673 26.5005 71.8878 26.5005C72.3714 26.5481 72.9026 26.4518 73.3374 26.2593C73.7236 26.0656 73.7236 25.3408 73.2412 25.2446C72.0884 25.3002 70.952 25.2423 69.812 25.1843C69.4687 25.1657 69.1243 25.1483 68.7799 25.1344C68.3044 25.1135 67.8278 25.0996 67.3476 25.0996L67.154 25.03ZM12.4758 37.8516C12.0885 39.7836 11.4124 41.6681 10.495 43.4065C9.9152 44.3725 9.14284 45.1936 8.17682 45.7734C7.50072 46.2083 6.72721 46.3045 5.95486 46.112C5.37501 45.8697 4.94013 45.3385 4.84388 44.7111C4.69891 43.7926 4.79517 42.8753 5.1338 42.0056C6.58225 37.8029 10.3501 33.4563 13.4894 30.4609C13.3444 32.9727 13.0069 35.4359 12.4758 37.8516ZM14.6978 8C13.828 8 13.1519 8.72481 13.1519 9.54587C13.1519 10.4156 13.828 11.0917 14.6978 11.0917C15.5188 11.0917 16.1949 10.4156 16.1949 9.54587C16.1949 8.72481 15.5188 8 14.6978 8Z" fill="#1E3A2B"/>
<path d="M31.9096 18.6946C31.8795 18.6332 31.8493 18.5427 31.7879 18.5125C31.5756 18.3293 31.2706 18.2992 31.0283 18.3908C30.0854 18.7248 29.1125 18.9985 28.1395 19.242C28.1696 18.0556 28.1998 16.7788 27.4089 15.5623C27.0134 14.9546 26.2538 14.4676 25.5244 14.4676C24.977 14.4676 24.5201 14.8027 24.338 15.3188C24.0945 16.2314 24.2163 17.2346 24.7335 18.0556C25.2194 18.8465 25.9198 19.4855 26.7397 19.8497C26.5577 20.5803 26.2237 21.2796 25.7366 21.8269C25.4328 22.1911 24.7636 22.6782 24.2777 22.6782C23.9124 22.6782 23.6086 22.3743 23.4567 22.1609C22.878 21.2181 22.6043 20.1234 22.6356 19.0286C22.6959 17.63 23.0311 16.2314 24.004 15.1668C24.1861 14.9848 23.9727 14.7412 23.8521 14.5592C23.699 14.4977 23.5784 14.4977 23.4567 14.4977C22.9696 14.4977 22.6043 14.8027 22.3004 15.0451C21.2057 16.0494 20.5366 17.4178 20.416 18.8767C20.2629 20.215 20.598 21.5533 21.3889 22.648C22.0268 23.5897 23.183 24.3504 24.338 24.3504C26.5577 24.3504 27.6524 22.0392 28.0479 20.1535C29.3247 20.0932 30.3591 19.6073 31.4226 19.2118C31.6661 19.1202 32.0314 18.9985 31.9096 18.6946ZM26.8928 18.9683C26.0404 18.4511 25.4629 17.5384 25.3725 16.5353C25.3725 16.1097 25.4026 15.6238 25.7981 15.3501C26.2538 15.5924 26.5878 16.0494 26.6794 16.5654C26.923 17.3563 26.9833 18.1774 26.8928 18.9683Z" fill="#1E3A2B"/>
<path d="M42.0349 20.033C41.7948 20.0724 41.6858 20.2185 41.5977 20.3739C41.5513 20.454 41.5096 20.5374 41.4574 20.6105C40.8184 21.7053 39.6332 23.1955 38.3251 23.4993C38.0514 23.3775 37.9911 23.1038 37.9308 22.8905C37.6872 21.8873 37.8693 20.854 37.9911 19.8498C38.0514 19.4241 37.9308 18.9985 37.5956 18.6947C37.2616 18.4512 36.7444 18.3909 36.2886 18.2389C35.1939 17.9038 34.0992 17.4179 33.3685 16.6873C33.6735 16.0495 34.1293 15.4105 34.1293 14.7112C34.1595 14.2856 33.9159 13.8901 33.5205 13.708C33.3999 13.6767 33.2781 13.6466 33.1262 13.6466C32.3956 13.6466 31.818 14.3157 31.7264 15.015C31.636 15.7143 31.8482 16.4136 32.3353 16.9007C33.2479 17.8736 35.1023 18.6646 36.3188 19.1505C36.197 19.7894 36.1054 20.4586 36.1356 21.1277C36.197 22.4649 36.4406 24.1371 38.0514 24.3505C38.5686 24.3505 39.0858 24.2287 39.5114 23.9249C40.4543 23.3416 41.215 22.4764 41.8296 21.5243C42.0477 21.1869 42.2471 20.839 42.4304 20.4887C42.5823 20.2754 42.3399 19.9715 42.0349 20.033ZM32.8212 15.8059C32.6693 15.3188 32.609 14.7112 33.1262 14.3157C33.3384 14.8329 33.0044 15.3188 32.8212 15.8059Z" fill="#1E3A2B"/>
<path d="M59.1844 21.4015C59.1241 21.3098 59.0325 21.2484 58.9107 21.2484C58.8203 21.2484 58.7286 21.3098 58.6672 21.4015C58.6034 21.4896 58.5396 21.5754 58.4724 21.6601C57.9644 22.306 57.3602 22.8522 56.6609 23.2558C56.4475 23.4077 56.2052 23.4692 55.9616 23.4692C55.8097 23.4692 55.6578 23.4379 55.5059 23.4077C55.2009 23.2558 55.1707 22.8905 55.1104 22.5867C55.0188 21.6438 54.9887 20.6709 54.563 19.8498C54.2894 19.2723 53.742 18.907 53.103 18.8467C52.4037 18.8768 51.7647 19.1807 51.2788 19.6979C50.7917 20.1235 50.3661 20.6407 49.7886 20.9144C49.7283 20.367 49.697 19.8196 49.7585 19.2723C49.7283 17.4782 49.3027 15.0452 47.2953 14.4978C46.6876 14.4074 46.1089 14.6509 45.7135 15.1067C45.2577 15.7758 44.8936 16.5053 44.7103 17.2962C44.3149 18.573 43.9809 19.9414 43.19 21.0362C43.19 20.1849 43.2201 19.3337 43.1297 18.4814C43.1297 18.0558 43.0079 17.6301 42.7644 17.266C42.6426 17.1442 42.4907 17.0828 42.3388 17.0526C42.1567 17.0526 42.0048 17.1129 41.883 17.2347C41.6395 17.5385 41.4875 17.9038 41.4875 18.2993C41.4678 18.987 41.5003 19.6862 41.5977 20.3739C41.6452 20.7207 41.7102 21.064 41.7914 21.4015C41.803 21.442 41.8157 21.4826 41.8296 21.5243C41.9839 22.0172 42.2367 22.5867 42.8258 22.5867C43.5553 22.5867 44.2244 21.4015 44.4981 20.8541C45.1359 19.5761 45.3493 18.1172 45.957 16.8392C46.1402 16.5053 46.3524 16.0796 46.7177 15.9579C47.0819 16.0182 47.2651 16.3533 47.4472 16.6572C48.056 17.8737 48.1766 19.2421 48.5118 20.5491C48.6022 21.006 48.8156 21.4015 49.1809 21.7053C49.3328 21.7958 49.5149 21.8572 49.697 21.8572C49.8489 21.8572 50.002 21.8271 50.1539 21.7656C50.9437 21.4316 51.4609 20.6709 52.2518 20.3067C52.4953 20.2151 52.8293 20.1235 52.9812 20.367C53.1946 20.701 53.3465 21.0362 53.4381 21.4015C53.6202 22.1611 53.8939 22.8905 54.2894 23.5596C54.5932 24.0166 55.1104 24.3204 55.6578 24.3505C57.0483 24.3505 58.1906 23.2465 58.9258 22.1692C58.9629 22.1158 58.9977 22.0625 59.0325 22.0091C59.1844 21.8572 59.2459 21.6137 59.1844 21.4015Z" fill="#1E3A2B"/>
<path d="M68.7797 25.3663C68.5558 25.6783 68.3112 25.7444 68.0328 26.0227C67.8206 26.1746 67.6072 26.1143 67.3335 26.0842C67.1816 25.6586 67.09 25.5368 67.1515 25.0799C67.1526 25.0637 67.1528 25.0463 67.154 25.03C67.2479 22.7663 67.671 20.5026 67.9424 18.2389C68.0328 17.3865 68.1546 16.5051 67.8508 15.6841C67.729 15.4707 67.5469 15.3501 67.3335 15.3188C67.09 15.2886 66.8778 15.3501 66.7259 15.502C66.3003 16.0494 66.2086 16.7185 65.8746 17.2961C65.0536 18.7863 63.989 20.2451 62.4988 21.1277C62.1033 21.37 61.6174 21.4617 61.1304 21.37C60.6131 21.1578 60.249 20.6406 60.249 20.0932C60.1875 18.8767 60.7048 17.6915 61.6777 16.9609C61.9816 16.7185 62.3469 16.5655 62.7423 16.5968C63.1065 16.6571 63.4718 16.6872 63.8371 16.6872C63.989 16.6571 64.0795 16.5051 64.1108 16.3532C64.1108 16.2013 64.0191 16.0494 63.8672 15.9879C63.2282 15.6841 62.5289 15.5925 61.8598 15.6841C60.1272 16.1398 58.3935 17.8434 58.0897 19.6375C57.9308 20.3518 58.0711 21.0663 58.4724 21.6601C58.5303 21.7494 58.5964 21.8351 58.6672 21.9174C58.7484 22.0079 58.8353 22.0915 58.9258 22.1692C59.4778 22.6435 60.1864 22.8858 60.9181 22.8602C62.8641 22.6782 64.4146 21.1277 65.4792 19.576C65.3574 20.2753 65.296 20.9746 65.2357 21.6739C65.2101 22.7675 65.1616 23.9063 65.3588 25.0115C65.3912 25.1982 65.4305 25.3837 65.4792 25.567C65.5499 25.8673 65.6613 25.7989 65.8074 26.0633C66.8105 26.0842 67.8148 26.1062 68.8168 26.1236C69.1728 25.7502 69.5068 25.8836 69.8118 25.4162C69.4685 25.3976 69.1241 25.3802 68.7797 25.3663Z" fill="#1E3A2B"/>
<path d="M67.154 25.03C66.5567 25.0463 65.9479 25.0405 65.3588 25.0115M67.154 25.03L67.3476 25.0996C67.8278 25.0996 68.3044 25.1135 68.7799 25.1344C69.1243 25.1483 69.4687 25.1657 69.812 25.1843C70.952 25.2423 72.0884 25.3002 73.2412 25.2446C73.7236 25.3408 73.7236 26.0656 73.3374 26.2593C72.9026 26.4518 72.3714 26.5481 71.8878 26.5005C70.8673 26.5005 69.8433 26.4889 68.817 26.4715C67.815 26.4541 66.8107 26.4321 65.8076 26.4112C64.2884 26.3822 62.7715 26.3556 61.2616 26.3556C56.8664 26.3069 52.5187 26.2106 48.1235 26.2106C38.3171 26.2106 26.0488 26.4043 16.6298 29.1087C16.1949 34.7123 14.649 43.5514 10.0115 46.9806C8.85292 47.8017 7.45202 48.1403 6.09982 47.9467C4.89142 47.7054 3.87785 46.9331 3.39426 45.8221C2.91183 44.5662 2.86313 43.2128 3.29801 41.9093C4.89142 36.8368 9.52902 31.8142 13.3931 28.3363C13.7317 28.1426 13.6343 27.7078 13.683 27.3703C13.7793 24.2298 13.683 21.0906 13.683 17.9501C13.683 17.2265 13.7317 16.5504 13.683 15.8256C13.5868 15.1495 13.683 14.4247 14.0217 13.7961C14.2142 13.4587 14.649 13.41 15.0352 13.3624C15.3739 13.3624 15.7113 13.4587 15.905 13.6999C16.8223 14.7146 16.871 19.0136 16.871 20.3171C16.9673 22.4915 16.9197 24.7134 16.8223 26.8867C21.9423 25.6308 27.256 25.1483 32.521 24.8584C36.2888 24.6647 40.0567 24.616 43.7758 24.5685C50.9253 24.5685 58.0736 24.8097 65.1744 25.0034C65.2358 25.0068 65.2973 25.0092 65.3588 25.0115M67.154 25.03C67.1528 25.0463 67.1526 25.0637 67.1515 25.0799C67.09 25.5368 67.1816 25.6586 67.3335 26.0842C67.6072 26.1143 67.8206 26.1746 68.0328 26.0227C68.3112 25.7444 68.5558 25.6783 68.7797 25.3663C69.1241 25.3802 69.4685 25.3976 69.8118 25.4162C69.5068 25.8836 69.1728 25.7502 68.8168 26.1236C67.8148 26.1062 66.8105 26.0842 65.8074 26.0633C65.6613 25.7989 65.5499 25.8673 65.4792 25.567C65.4305 25.3837 65.3912 25.1982 65.3588 25.0115M67.154 25.03C67.2479 22.7663 67.671 20.5026 67.9424 18.2389C68.0328 17.3865 68.1546 16.5051 67.8508 15.6841C67.729 15.4707 67.5469 15.3501 67.3335 15.3188C67.09 15.2886 66.8778 15.3501 66.7259 15.502C66.3003 16.0494 66.2086 16.7185 65.8746 17.2961C65.0536 18.7863 63.989 20.2451 62.4988 21.1277C62.1033 21.37 61.6174 21.4617 61.1304 21.37C60.6131 21.1578 60.249 20.6406 60.249 20.0932C60.1875 18.8767 60.7048 17.6915 61.6777 16.9609C61.9816 16.7185 62.3469 16.5655 62.7423 16.5968C63.1065 16.6571 63.4718 16.6872 63.8371 16.6872C63.989 16.6571 64.0795 16.5051 64.1108 16.3532C64.1108 16.2013 64.0191 16.0494 63.8672 15.9879C63.2282 15.6841 62.5289 15.5925 61.8598 15.6841C60.1272 16.1398 58.3935 17.8434 58.0897 19.6375C57.9308 20.3518 58.0711 21.0663 58.4724 21.6601M65.3588 25.0115C65.1616 23.9063 65.2101 22.7675 65.2357 21.6739C65.296 20.9746 65.3574 20.2753 65.4792 19.576C64.4146 21.1277 62.8641 22.6782 60.9181 22.8602C60.1864 22.8858 59.4778 22.6435 58.9258 22.1692M41.5977 20.3739C41.6858 20.2185 41.7948 20.0724 42.0349 20.033C42.3399 19.9715 42.5823 20.2754 42.4304 20.4887C42.2471 20.839 42.0477 21.1869 41.8296 21.5243M41.5977 20.3739C41.5513 20.454 41.5096 20.5374 41.4574 20.6105C40.8184 21.7053 39.6332 23.1955 38.3251 23.4993C38.0514 23.3775 37.9911 23.1038 37.9308 22.8905C37.6872 21.8873 37.8693 20.854 37.9911 19.8498C38.0514 19.4241 37.9308 18.9985 37.5956 18.6947C37.2616 18.4512 36.7444 18.3909 36.2886 18.2389C35.1939 17.9038 34.0992 17.4179 33.3685 16.6873C33.6735 16.0495 34.1293 15.4105 34.1293 14.7112C34.1595 14.2856 33.9159 13.8901 33.5205 13.708C33.3999 13.6767 33.2781 13.6466 33.1262 13.6466C32.3956 13.6466 31.818 14.3157 31.7264 15.015C31.636 15.7143 31.8482 16.4136 32.3353 16.9007C33.2479 17.8736 35.1023 18.6646 36.3188 19.1505C36.197 19.7894 36.1054 20.4586 36.1356 21.1277C36.197 22.4649 36.4406 24.1371 38.0514 24.3505C38.5686 24.3505 39.0858 24.2287 39.5114 23.9249C40.4542 23.3416 41.215 22.4765 41.8296 21.5243M41.5977 20.3739C41.5003 19.6862 41.4678 18.987 41.4875 18.2993C41.4875 17.9038 41.6395 17.5385 41.883 17.2347C42.0048 17.1129 42.1567 17.0526 42.3388 17.0526C42.4907 17.0828 42.6426 17.1442 42.7644 17.266C43.0079 17.6301 43.1297 18.0558 43.1297 18.4814C43.2201 19.3337 43.19 20.1849 43.19 21.0362C43.9809 19.9414 44.3149 18.573 44.7103 17.2962C44.8936 16.5053 45.2577 15.7758 45.7135 15.1067C46.1089 14.6509 46.6876 14.4074 47.2953 14.4978C49.3027 15.0452 49.7283 17.4782 49.7585 19.2723C49.697 19.8196 49.7283 20.367 49.7886 20.9144C50.3661 20.6407 50.7917 20.1235 51.2788 19.6979C51.7647 19.1807 52.4037 18.8768 53.103 18.8467C53.742 18.907 54.2894 19.2723 54.563 19.8498C54.9887 20.6709 55.0188 21.6438 55.1104 22.5867C55.1707 22.8905 55.2009 23.2558 55.5059 23.4077C55.6578 23.4379 55.8097 23.4692 55.9616 23.4692C56.2052 23.4692 56.4475 23.4077 56.6609 23.2558C57.3602 22.8522 57.9644 22.306 58.4724 21.6601M41.5977 20.3739C41.6452 20.7207 41.7102 21.064 41.7914 21.4015C41.803 21.442 41.8157 21.4826 41.8296 21.5243M41.8296 21.5243C41.9839 22.0172 42.2367 22.5867 42.8258 22.5867C43.5553 22.5867 44.2244 21.4015 44.4981 20.8541C45.1359 19.5761 45.3493 18.1172 45.957 16.8392C46.1402 16.5053 46.3524 16.0796 46.7177 15.9579C47.0819 16.0182 47.2651 16.3533 47.4472 16.6572C48.056 17.8737 48.1766 19.2421 48.5118 20.5491C48.6022 21.006 48.8156 21.4015 49.1809 21.7053C49.3328 21.7958 49.5149 21.8572 49.697 21.8572C49.8489 21.8572 50.002 21.8271 50.1539 21.7656C50.9437 21.4316 51.4609 20.6709 52.2518 20.3067C52.4953 20.2151 52.8293 20.1235 52.9812 20.367C53.1946 20.701 53.3465 21.0362 53.4381 21.4015C53.6202 22.1611 53.8939 22.8905 54.2894 23.5596C54.5932 24.0166 55.1104 24.3204 55.6578 24.3505C57.0483 24.3505 58.1906 23.2465 58.9258 22.1692M58.4724 21.6601C58.5396 21.5754 58.6034 21.4896 58.6672 21.4015C58.7286 21.3098 58.8203 21.2484 58.9107 21.2484C59.0325 21.2484 59.1241 21.3098 59.1844 21.4015C59.2459 21.6137 59.1844 21.8572 59.0325 22.0091C58.9977 22.0625 58.9629 22.1158 58.9258 22.1692M58.4724 21.6601C58.5303 21.7494 58.5964 21.8351 58.6672 21.9174C58.7484 22.0079 58.8353 22.0915 58.9258 22.1692M12.4758 37.8516C12.0885 39.7836 11.4124 41.6681 10.495 43.4065C9.9152 44.3725 9.14284 45.1936 8.17682 45.7734C7.50072 46.2083 6.72721 46.3045 5.95486 46.112C5.37501 45.8697 4.94013 45.3385 4.84388 44.7111C4.69891 43.7926 4.79517 42.8753 5.1338 42.0056C6.58225 37.8029 10.3501 33.4563 13.4894 30.4609C13.3444 32.9727 13.0069 35.4359 12.4758 37.8516ZM14.6978 8C13.828 8 13.1519 8.72481 13.1519 9.54587C13.1519 10.4156 13.828 11.0917 14.6978 11.0917C15.5188 11.0917 16.1949 10.4156 16.1949 9.54587C16.1949 8.72481 15.5188 8 14.6978 8ZM31.9096 18.6946C31.8795 18.6332 31.8493 18.5427 31.7879 18.5125C31.5756 18.3293 31.2706 18.2992 31.0283 18.3908C30.0854 18.7248 29.1125 18.9985 28.1395 19.242C28.1696 18.0556 28.1998 16.7788 27.4089 15.5623C27.0134 14.9546 26.2538 14.4676 25.5244 14.4676C24.977 14.4676 24.5201 14.8027 24.338 15.3188C24.0945 16.2314 24.2163 17.2346 24.7335 18.0556C25.2194 18.8465 25.9198 19.4855 26.7397 19.8497C26.5577 20.5803 26.2237 21.2796 25.7366 21.8269C25.4328 22.1911 24.7636 22.6782 24.2777 22.6782C23.9124 22.6782 23.6086 22.3743 23.4567 22.1609C22.878 21.2181 22.6043 20.1234 22.6356 19.0286C22.6959 17.63 23.0311 16.2314 24.004 15.1668C24.1861 14.9848 23.9727 14.7412 23.8521 14.5592C23.699 14.4977 23.5784 14.4977 23.4567 14.4977C22.9696 14.4977 22.6043 14.8027 22.3004 15.0451C21.2057 16.0494 20.5366 17.4178 20.416 18.8767C20.2629 20.215 20.598 21.5533 21.3889 22.648C22.0268 23.5897 23.183 24.3504 24.338 24.3504C26.5577 24.3504 27.6524 22.0392 28.0479 20.1535C29.3247 20.0932 30.3591 19.6073 31.4226 19.2118C31.6661 19.1202 32.0314 18.9985 31.9096 18.6946ZM26.8928 18.9683C26.0404 18.4511 25.4629 17.5384 25.3725 16.5353C25.3725 16.1097 25.4026 15.6238 25.7981 15.3501C26.2538 15.5924 26.5878 16.0494 26.6794 16.5654C26.923 17.3563 26.9833 18.1774 26.8928 18.9683ZM32.8212 15.8059C32.6693 15.3188 32.609 14.7112 33.1262 14.3157C33.3384 14.8329 33.0044 15.3188 32.8212 15.8059Z" stroke="#1E3A2B" stroke-width="0.462327" stroke-miterlimit="10"/>
</svg>
